<svg xmlns="http://www.w3.org/2000/svg" xmlns:xlink="http://www.w3.org/1999/xlink" width="284" height="46" viewBox="0 0 284 46">
  <defs>
    <clipPath id="clip-path">
      <rect id="사각형_3718" data-name="사각형 3718" width="284" height="46" transform="translate(-1032.039 -476.842)" fill="#fff" stroke="#707070" stroke-width="1"/>
    </clipPath>
  </defs>
  <g id="마스크_그룹_3292" data-name="마스크 그룹 3292" transform="translate(1032.039 476.842)" clip-path="url(#clip-path)">
    <g id="Layer_1" data-name="Layer 1" transform="translate(-1032.039 -471)">
      <g id="그룹_22" data-name="그룹 22">
        <rect id="사각형_10" data-name="사각형 10" width="35.186" height="35.186" transform="translate(0.018)" fill="#ffa727"/>
        <circle id="타원_7" data-name="타원 7" cx="15.532" cy="15.532" r="15.532" transform="translate(2.07 2.07)" fill="#ffff50"/>
        <path id="패스_89" data-name="패스 89" d="M35.2,35.2V0h-.189L0,35.015V35.2Z" fill="#cfc"/>
        <path id="패스_90" data-name="패스 90" d="M.98,53.845H35.968V23.9A35.417,35.417,0,0,1,.98,53.845Z" transform="translate(-0.764 -18.641)" fill="#6cf"/>
      </g>
    </g>
    <g id="Layer_1-2" data-name="Layer 1" transform="translate(-984.381 -471)">
      <g id="그룹_24" data-name="그룹 24">
        <path id="패스_91" data-name="패스 91" d="M27.361,34.528l-2.944-7.389H7.541L4.6,34.528H0L13.38,1.23h5.14l13.429,33.3H27.356ZM15.976,4.927,8.739,23.446H23.165Z" transform="translate(0 -0.682)" fill="#fff"/>
        <path id="패스_92" data-name="패스 92" d="M90.834,0c9.834,0,16.524,7.389,16.524,17.223s-6.69,17.223-16.524,17.223S74.31,27.058,74.31,17.223,80.951,0,90.834,0Zm0,3.692C83.347,3.692,78.6,9.433,78.6,17.219s4.743,13.527,12.231,13.527,12.231-5.79,12.231-13.527S98.272,3.692,90.834,3.692Z" transform="translate(-41.213)" fill="#fff"/>
        <path id="패스_93" data-name="패스 93" d="M182.342,34.528,173.853,21.3h-6.641V34.528H163.07V1.23h13.38c6.093,0,10.436,3.893,10.436,10.035s-4.093,9.287-8.636,9.683l8.988,13.58h-4.89Zm-6.391-29.6h-8.739V17.656h8.739c3.946,0,6.641-2.646,6.641-6.391s-2.695-6.338-6.641-6.338Z" transform="translate(-90.439 -0.682)" fill="#fff"/>
        <path id="패스_94" data-name="패스 94" d="M244.714,0c9.834,0,16.524,7.389,16.524,17.223s-6.69,17.223-16.524,17.223S228.19,27.058,228.19,17.223,234.831,0,244.714,0Zm0,3.692c-7.487,0-12.231,5.741-12.231,13.527s4.743,13.527,12.231,13.527,12.231-5.79,12.231-13.527S252.152,3.692,244.714,3.692Z" transform="translate(-126.555)" fill="#fff"/>
        <path id="패스_95" data-name="패스 95" d="M332.436,34.528l-2.944-7.389H312.616l-2.944,7.389H305.08l13.375-33.3h5.14l13.429,33.3h-4.592Zm-11.384-29.6-7.238,18.52h14.426l-7.189-18.52Z" transform="translate(-169.199 -0.682)" fill="#fff"/>
        <path id="패스_96" data-name="패스 96" d="M392.07,20.413V2.94h2.174V18.475h8.124v1.937Z" transform="translate(-217.444 -1.631)" fill="#fff"/>
        <path id="패스_97" data-name="패스 97" d="M432.365,20.413l-1.546-3.875h-8.854l-1.546,3.875h-2.41L425.034,2.94h2.7l7.046,17.473h-2.41ZM426.392,4.877l-3.8,9.719h7.572l-3.773-9.719Z" transform="translate(-231.83 -1.631)" fill="#fff"/>
        <path id="패스_98" data-name="패스 98" d="M460.76,20.413V2.94h7.781c3.038,0,4.9,1.835,4.9,4.454a3.973,3.973,0,0,1-3.064,4.009,4.364,4.364,0,0,1,3.407,4.3c0,2.8-1.862,4.717-5.055,4.717h-7.964Zm2.174-9.906h5.238a2.716,2.716,0,0,0,3.015-2.8,2.732,2.732,0,0,0-3.015-2.828h-5.238v5.634Zm0,7.968h5.345c2.044,0,3.247-1.154,3.247-3.011a2.965,2.965,0,0,0-3.247-3.011h-5.345V18.48Z" transform="translate(-255.539 -1.631)" fill="#fff"/>
        <path id="패스_99" data-name="패스 99" d="M496.7,15.97a7.389,7.389,0,0,0,5.5,2.49c3.118,0,4.115-1.675,4.115-3.011,0-2.1-2.12-2.672-4.427-3.3-2.8-.735-5.919-1.519-5.919-4.953,0-2.882,2.57-4.846,6-4.846a8.213,8.213,0,0,1,6.209,2.436l-1.309,1.6a6.7,6.7,0,0,0-5.055-2.1c-2.1,0-3.59,1.127-3.59,2.779,0,1.755,2.018,2.28,4.245,2.882,2.855.762,6.106,1.652,6.106,5.318,0,2.543-1.728,5.135-6.445,5.135a8.657,8.657,0,0,1-6.708-2.779L496.7,15.97Z" transform="translate(-274.762 -1.303)" fill="#fff"/>
        <g id="그룹_23" data-name="그룹 23" transform="translate(173.909 20.573)">
          <path id="패스_100" data-name="패스 100" d="M390.46,52.461a6.051,6.051,0,0,1,6.182-6.271,5.458,5.458,0,0,1,4.654,2.4l-1.274.708a4.112,4.112,0,0,0-3.381-1.764,4.646,4.646,0,0,0-4.619,4.926,4.646,4.646,0,0,0,4.619,4.926,4.066,4.066,0,0,0,3.381-1.764l1.292.708a5.519,5.519,0,0,1-4.672,2.4,6.053,6.053,0,0,1-6.182-6.271Z" transform="translate(-390.46 -46.19)" fill="#fff"/>
          <path id="패스_101" data-name="패스 101" d="M417.88,58.256a4.35,4.35,0,1,1,8.685,0,4.351,4.351,0,1,1-8.685,0Zm7.251,0c0-1.782-1.038-3.381-2.908-3.381s-2.926,1.6-2.926,3.381,1.056,3.4,2.926,3.4S425.131,60.056,425.131,58.256Z" transform="translate(-405.667 -50.333)" fill="#fff"/>
          <path id="패스_102" data-name="패스 102" d="M442.468,69.78a1,1,0,1,1-1,1A1.008,1.008,0,0,1,442.468,69.78Z" transform="translate(-418.75 -59.273)" fill="#fff"/>
          <path id="패스_103" data-name="패스 103" d="M450.724,73.343a2.7,2.7,0,0,0,1.18-1.693.88.88,0,0,1-1.127-.891.962.962,0,0,1,.962-.98,1.232,1.232,0,0,1,1.145,1.381,3.507,3.507,0,0,1-1.492,2.744l-.673-.561Z" transform="translate(-423.88 -59.273)" fill="#fff"/>
          <path id="패스_104" data-name="패스 104" d="M471.51,58.764V46.64h1.51V57.419h5.634v1.345H471.51Z" transform="translate(-435.411 -46.44)" fill="#fff"/>
          <path id="패스_105" data-name="패스 105" d="M489.652,58.11V52.369H488.2v-1.2h1.452v-2.4h1.363v2.4H492.8v1.2h-1.782V57.82c0,.655.29,1.127.891,1.127a1.312,1.312,0,0,0,.926-.365l.4,1.02a2.241,2.241,0,0,1-1.635.561A1.8,1.8,0,0,1,489.652,58.11Z" transform="translate(-444.667 -47.621)" fill="#fff"/>
          <path id="패스_106" data-name="패스 106" d="M508.578,58.769V57.46a3.7,3.7,0,0,1-2.962,1.528c-2.289,0-3.906-1.746-3.906-4.6s1.6-4.614,3.906-4.614a3.673,3.673,0,0,1,2.962,1.546V46.65h1.363V58.774h-1.363Zm0-6.36a3.3,3.3,0,0,0-2.637-1.416c-1.764,0-2.819,1.452-2.819,3.4s1.056,3.381,2.819,3.381a3.27,3.27,0,0,0,2.637-1.381Z" transform="translate(-452.16 -46.445)" fill="#fff"/>
          <path id="패스_107" data-name="패스 107" d="M526.708,69.78a1,1,0,1,1-1,1A1.008,1.008,0,0,1,526.708,69.78Z" transform="translate(-465.47 -59.273)" fill="#fff"/>
        </g>
      </g>
    </g>
  </g>
</svg>
