<svg xmlns="http://www.w3.org/2000/svg" xmlns:xlink="http://www.w3.org/1999/xlink" width="452" height="56" viewBox="0 0 452 56">
  <defs>
    <clipPath id="clip-path">
      <rect id="사각형_3717" data-name="사각형 3717" width="452" height="56" transform="translate(156 3440)" fill="#fff" stroke="#707070" stroke-width="1"/>
    </clipPath>
  </defs>
  <g id="마스크_그룹_3291" data-name="마스크 그룹 3291" transform="translate(-156 -3440)" clip-path="url(#clip-path)">
    <g id="그룹_1061" data-name="그룹 1061" transform="translate(1188.039 3915.652)">
      <g id="Layer_1" data-name="Layer 1" transform="translate(-1032.04 -471)">
        <g id="그룹_22" data-name="그룹 22">
          <rect id="사각형_10" data-name="사각형 10" width="46.356" height="46.356" transform="translate(0.023)" fill="#ffa727"/>
          <circle id="타원_7" data-name="타원 7" cx="20.462" cy="20.462" r="20.462" transform="translate(2.728 2.728)" fill="#ffff50"/>
          <path id="패스_89" data-name="패스 89" d="M46.379,46.379V0H46.13L0,46.13v.249Z" fill="#cfc"/>
          <path id="패스_90" data-name="패스 90" d="M.98,63.351h46.1V23.9A46.66,46.66,0,0,1,.98,63.351Z" transform="translate(-0.696 -16.972)" fill="#6cf"/>
        </g>
      </g>
      <g id="Layer_1-2" data-name="Layer 1" transform="translate(-969.253 -471)">
        <g id="그룹_24" data-name="그룹 24">
          <path id="패스_91" data-name="패스 91" d="M36.046,45.1l-3.879-9.735H9.934L6.056,45.1H0L17.627,1.23H24.4L42.09,45.1H36.04Zm-15-39L11.513,30.5H30.519Z" transform="translate(0 -0.508)" fill="#fff"/>
          <path id="패스_92" data-name="패스 92" d="M96.08,0c12.956,0,21.77,9.735,21.77,22.691s-8.814,22.691-21.77,22.691S74.31,35.647,74.31,22.691,83.059,0,96.08,0Zm0,4.864c-9.864,0-16.113,7.564-16.113,17.821S86.216,40.506,96.08,40.506s16.113-7.628,16.113-17.821S105.879,4.864,96.08,4.864Z" transform="translate(-30.706)" fill="#fff"/>
          <path id="패스_93" data-name="패스 93" d="M188.46,45.1,177.276,27.67h-8.749V45.1H163.07V1.23H180.7c8.027,0,13.748,5.128,13.748,13.22s-5.393,12.234-11.378,12.757L194.909,45.1h-6.443Zm-8.42-39H168.527v16.77H180.04c5.2,0,8.749-3.486,8.749-8.42s-3.55-8.35-8.749-8.35Z" transform="translate(-67.383 -0.508)" fill="#fff"/>
          <path id="패스_94" data-name="패스 94" d="M249.96,0c12.956,0,21.77,9.735,21.77,22.691s-8.814,22.691-21.77,22.691-21.77-9.735-21.77-22.691S236.939,0,249.96,0Zm0,4.864c-9.864,0-16.113,7.564-16.113,17.821S240.1,40.506,249.96,40.506s16.113-7.628,16.113-17.821S259.759,4.864,249.96,4.864Z" transform="translate(-94.292)" fill="#fff"/>
          <path id="패스_95" data-name="패스 95" d="M341.12,45.1l-3.879-9.735H315.008L311.13,45.1h-6.05L322.7,1.23h6.772L347.164,45.1h-6.05Zm-15-39-9.535,24.4h19.006L326.122,6.1Z" transform="translate(-126.064 -0.508)" fill="#fff"/>
          <path id="패스_96" data-name="패스 96" d="M392.07,45.4V2.94h5.282V40.693h19.742V45.4Z" transform="translate(-147.04 -1.58)" fill="#fff"/>
          <path id="패스_97" data-name="패스 97" d="M452.894,45.4l-3.756-9.417H427.621L423.866,45.4H418.01L435.079,2.94h6.559L458.761,45.4h-5.856ZM438.38,7.648l-9.232,23.617h18.4L438.38,7.648Z" transform="translate(-144.904 -1.58)" fill="#fff"/>
          <path id="패스_98" data-name="패스 98" d="M460.76,45.4V2.94h18.909c7.382,0,11.906,4.459,11.906,10.824a9.654,9.654,0,0,1-7.447,9.741c4.524.7,8.28,5.347,8.28,10.445,0,6.808-4.524,11.462-12.285,11.462H460.771Zm5.282-24.072h12.729c4.773,0,7.327-2.922,7.327-6.808s-2.543-6.873-7.327-6.873H466.042V21.34Zm0,19.363H479.03c4.968,0,7.89-2.8,7.89-7.317,0-3.886-2.673-7.317-7.89-7.317H466.042V40.7Z" transform="translate(-141.384 -1.58)" fill="#fff"/>
          <path id="패스_99" data-name="패스 99" d="M498.526,35.448a17.955,17.955,0,0,0,13.367,6.05c7.577,0,10-4.07,10-7.317,0-5.1-5.152-6.494-10.758-8.02-6.808-1.786-14.385-3.691-14.385-12.036,0-7,6.245-11.776,14.579-11.776,6.494,0,11.527,2.165,15.088,5.92l-3.182,3.886a16.273,16.273,0,0,0-12.285-5.1c-5.1,0-8.724,2.738-8.724,6.754,0,4.264,4.9,5.542,10.315,7,6.938,1.851,14.839,4.016,14.839,12.923,0,6.18-4.2,12.48-15.662,12.48-7.382,0-12.794-2.8-16.3-6.754l3.117-4.016Z" transform="translate(-138.529 -1.628)" fill="#fff"/>
        </g>
      </g>
    </g>
  </g>
</svg>
