<svg xmlns="http://www.w3.org/2000/svg" xmlns:xlink="http://www.w3.org/1999/xlink" width="399" height="60" viewBox="0 0 399 60">
  <defs>
    <clipPath id="clip-path">
      <rect id="사각형_3716" data-name="사각형 3716" width="399" height="60" transform="translate(738 7581.158)" fill="#fff" stroke="#707070" stroke-width="1"/>
    </clipPath>
  </defs>
  <g id="마스크_그룹_3290" data-name="마스크 그룹 3290" transform="translate(-738 -7581.158)" clip-path="url(#clip-path)">
    <g id="Layer_1" data-name="Layer 1" transform="translate(750 7585.002)">
      <g id="그룹_402" data-name="그룹 402" transform="translate(0 -0.001)">
        <path id="패스_972" data-name="패스 972" d="M59.344,39.124h16.1V32.271H62.268a25.722,25.722,0,1,0-49.706,0H0v6.853H15.487a25.777,25.777,0,0,0,4.459,5.441H9.595v6.853H36.742c.172,0,.338.027.51.027.22,0,.435-.027.66-.027H65.236V44.565H54.89A25.889,25.889,0,0,0,59.344,39.124ZM37.52,9.09A16.635,16.635,0,1,1,20.783,25.623,16.66,16.66,0,0,1,37.52,9.09Z" transform="translate(0 0.001)" fill="#f9a529"/>
        <g id="그룹_401" data-name="그룹 401" transform="translate(101.124 5.646)">
          <path id="패스_973" data-name="패스 973" d="M306.062,15.934q-5.143-5.417-15.7-5.414c-7.035,0-12.224,1.8-15.7,5.414s-5.21,9.434-5.21,17.477,1.739,13.431,5.21,17.134q5.208,5.481,15.7,5.484c6.992,0,12.267-1.83,15.7-5.484q5.208-5.554,5.21-17.134C311.273,25.69,309.534,19.546,306.062,15.934Zm-5.554,30.018q-3.22,3.767-10.142,3.767c-4.615,0-7.947-1.256-10.142-3.767Q277,42.113,277,33.412q0-9.184,3.22-12.814,3.292-3.7,10.142-3.7c4.567,0,8,1.234,10.142,3.7q3.292,3.63,3.289,12.814Q303.8,42.113,300.508,45.952Z" transform="translate(-225.989 -10.52)" fill="#f9a529" fill-rule="evenodd"/>
          <path id="패스_974" data-name="패스 974" d="M576.462,15.934q-5.143-5.417-15.7-5.414c-7.035,0-12.224,1.8-15.7,5.414s-5.211,9.434-5.211,17.477,1.739,13.431,5.211,17.134q5.208,5.481,15.7,5.484c6.992,0,12.267-1.83,15.7-5.484q5.208-5.554,5.21-17.134C581.673,25.69,579.934,19.546,576.462,15.934Zm-5.554,30.018q-3.22,3.767-10.142,3.767c-4.615,0-7.947-1.256-10.142-3.767q-3.22-3.839-3.22-12.541,0-9.184,3.22-12.814,3.292-3.7,10.142-3.7c4.567,0,8,1.234,10.142,3.7q3.292,3.63,3.289,12.814Q574.2,42.113,570.908,45.952Z" transform="translate(-351.29 -10.52)" fill="#f9a529" fill-rule="evenodd"/>
          <path id="패스_975" data-name="패스 975" d="M631.32,55.936V11.8H637.9l23.026,32.481V11.8h7.405V55.936h-6.584L638.79,23.52V55.936Z" transform="translate(-393.672 -11.113)" fill="#f9a529" fill-rule="evenodd"/>
          <path id="패스_976" data-name="패스 976" d="M466.38,51.96v3.976h33.651V50.178H476.178l23.509-33.79V11.8H467.544v6.1h22.548Z" transform="translate(-317.24 -11.113)" fill="#f9a529" fill-rule="evenodd"/>
          <rect id="사각형_1379" data-name="사각형 1379" width="7.47" height="44.136" transform="translate(134.394 0.687)" fill="#f9a529"/>
          <path id="패스_977" data-name="패스 977" d="M388.3,40.365a7.578,7.578,0,0,0-1.921-1.921,12.165,12.165,0,0,0,6.718-4.593,13.389,13.389,0,0,0,2.329-7.953q0-6.512-3.429-10.281-3.356-3.839-10.759-3.837H360.95V55.916h7.47V40.29h8.291a6.287,6.287,0,0,1,3.563.751,5.662,5.662,0,0,1,1.851,2.538l5.414,12.337h7.679L389.664,43.1A15.259,15.259,0,0,0,388.3,40.36Zm-9.047-6.1H368.42V17.613h11.516q8.017,0,8.017,8.291,0,4.387-2.329,6.375a9.5,9.5,0,0,1-6.375,1.985Z" transform="translate(-268.385 -11.104)" fill="#f9a529" fill-rule="evenodd"/>
          <path id="패스_978" data-name="패스 978" d="M188.45,11.8V55.936h7.47V36.742h21.244V55.936h7.47V11.8h-7.47V30.989H195.92V11.8Z" transform="translate(-188.45 -11.113)" fill="#f9a529" fill-rule="evenodd"/>
        </g>
      </g>
    </g>
  </g>
</svg>
