<svg xmlns="http://www.w3.org/2000/svg" xmlns:xlink="http://www.w3.org/1999/xlink" width="393" height="673" viewBox="0 0 393 673">
  <defs>
    <clipPath id="clip-path">
      <rect id="사각형_3986" data-name="사각형 3986" width="393" height="673" transform="translate(-20954 -11016)" fill="#fff" stroke="#707070" stroke-width="1"/>
    </clipPath>
    <clipPath id="clip-path-2">
      <rect id="사각형_3984" data-name="사각형 3984" width="762" height="556" transform="translate(-0.416 -0.491)" fill="#fff" stroke="#707070" stroke-width="1"/>
    </clipPath>
    <clipPath id="clip-path-3">
      <rect id="사각형_3985" data-name="사각형 3985" width="762" height="556" transform="translate(0 0.001)" fill="#fff" stroke="#707070" stroke-width="1"/>
    </clipPath>
  </defs>
  <g id="main_section3_obj3_m" transform="translate(20954 11016)" clip-path="url(#clip-path)">
    <g id="main_section3_obj5" transform="translate(-21225.85 -10781.016) rotate(-30)" clip-path="url(#clip-path-2)">
      <g id="그룹_6319" data-name="그룹 6319" transform="translate(6.944 129.961)">
        <path id="패스_14030" data-name="패스 14030" d="M386.314,564.214l-82.809-12.535,13.485-44.253Zm-82.17-12.938,80.467,12.181-67.363-55.182Z" transform="translate(-303.505 -507.348)" fill="#72c7f0"/>
        <path id="패스_14031" data-name="패스 14031" d="M1690.625,1597.831l36.241-32.346L1743.8,1580.9Zm36.238-31.682-34.183,30.509,50.156-15.973Z" transform="translate(-1462.386 -1391.312)" fill="#72c7f0"/>
        <path id="패스_14032" data-name="패스 14032" d="M1504.394,1597.957l-37.818-12.1,73.041-19.8.129.477-71.428,19.362,36.226,11.593Z" transform="translate(-1275.203 -1391.789)" fill="#72c7f0"/>
        <path id="패스_14033" data-name="패스 14033" d="M1228.458,784.731,1192.669,736.9l.4-.3,35.622,47.606,37.377-3.771.05.491Z" transform="translate(-1046.365 -698.818)" fill="#72c7f0"/>
        <path id="패스_14034" data-name="패스 14034" d="M1635.959,1324.4l-.491-.188-54.134-20.732.177-.461,53.643,20.544-16.12-47.384.467-.159Z" transform="translate(-1371.076 -1149.477)" fill="#72c7f0"/>
        <path id="패스_14035" data-name="패스 14035" d="M872.632,575.925l-20.376-68.976,56.618,37.912-.247.212Zm-19.515-67.806,19.773,66.935,35.17-30.145Z" transform="translate(-761.964 -506.949)" fill="#72c7f0"/>
        <path id="패스_14036" data-name="패스 14036" d="M1943.066,1068.042l-.421-.258,39.818-64.949L1929.6,1017.8l-.135-.475,54.084-15.31Z" transform="translate(-1661.923 -920.557)" fill="#72c7f0"/>
        <path id="패스_14037" data-name="패스 14037" d="M995.6,1246.3l4.57-63.789,35.227,36.179Zm4.984-62.656-4.418,61.663,38.47-26.69Z" transform="translate(-881.724 -1071.352)" fill="#72c7f0"/>
      </g>
      <g id="그룹_6320" data-name="그룹 6320" transform="translate(480.327 124.716)">
        <path id="패스_14038" data-name="패스 14038" d="M4509.167,1679.6l-.4-.246-84.677-52.178,83.035,12.569Zm-82.756-51.574,82.215,50.661-1.974-38.514Z" transform="translate(-4219.463 -1437.602)" fill="#72c7f0"/>
        <path id="패스_14039" data-name="패스 14039" d="M4523.416,1250.836l-.162-.19-26.906-31.6,51.033,10.894Zm-25.75-31.006,25.8,30.306,22.845-19.921Z" transform="translate(-4279.832 -1096.629)" fill="#72c7f0"/>
        <path id="패스_14040" data-name="패스 14040" d="M4193.428,1274.651l-.149-.46-12.052-37.065.227-.08,52.95-18.631Zm-11.583-37.219,11.754,36.147,39.47-54.171Z" transform="translate(-4016.561 -1096.104)" fill="#72c7f0"/>
        <path id="패스_14041" data-name="패스 14041" d="M4252.054,568.5l-17.994-69.83,76.737-23.6.145.472L4234.656,499l17.876,69.373Z" transform="translate(-4060.702 -475.071)" fill="#72c7f0"/>
        <path id="패스_14042" data-name="패스 14042" d="M3645.461,1529.7l-55.074-59.434,26.849,59.165-.45.2-28.108-61.938,57.144,61.669Z" transform="translate(-3521.514 -1304.367)" fill="#72c7f0"/>
        <path id="패스_14043" data-name="패스 14043" d="M3604.332,860.85l-.326-.379-49.183-57.3,62.844-5.334Zm-48.506-57.266,48.229,56.187,12.991-61.383Z" transform="translate(-3493.228 -744.73)" fill="#72c7f0"/>
        <path id="패스_14044" data-name="패스 14044" d="M3628.969,1220.378l-38.24-14.089,43.775-32.035Zm-37.206-14.234,36.791,13.555,5.325-44.375Z" transform="translate(-3523.225 -1059.21)" fill="#72c7f0"/>
        <path id="패스_14045" data-name="패스 14045" d="M3475.464,1660.36l-57.5-21.477,17.926-15.389Zm-56.543-21.648,54.39,20.316-37.433-34.874Z" transform="translate(-3378.888 -1434.529)" fill="#72c7f0"/>
        <path id="패스_14046" data-name="패스 14046" d="M3220.345,1552.035l-.378-.1-39.49-10.7.129-.477,39.113,10.593-5.853-32.03.486-.089Z" transform="translate(-3180.477 -1347.426)" fill="#72c7f0"/>
      </g>
    </g>
    <g id="main_section3_obj5-2" data-name="main_section3_obj5" transform="matrix(-0.174, 0.985, -0.985, -0.174, -20417.564, -11058.456)" clip-path="url(#clip-path-3)">
      <g id="그룹_6321" data-name="그룹 6321" transform="translate(7.36 219.028)">
        <path id="패스_14047" data-name="패스 14047" d="M82.809,0,0,12.535,13.485,56.788ZM.639,12.938,81.105.757,13.742,55.939Z" transform="translate(0 149.653)" fill="#72c7f0"/>
        <path id="패스_14048" data-name="패스 14048" d="M0,0,36.241,32.346,53.176,16.935ZM36.238,31.682,2.055,1.172,52.211,17.146Z" transform="translate(228.24 0)" fill="#72c7f0"/>
        <path id="패스_14049" data-name="패스 14049" d="M37.818,0,0,12.1,73.041,31.9l.129-.477L1.742,12.063,37.968.47Z" transform="translate(191.374 0.351)" fill="#72c7f0"/>
        <path id="패스_14050" data-name="패스 14050" d="M35.789,0,0,47.829l.4.3L36.017.519,73.394,4.29l.05-.491Z" transform="translate(146.305 120.607)" fill="#72c7f0"/>
        <path id="패스_14051" data-name="패스 14051" d="M54.626,0l-.491.188L0,20.921l.177.461L53.82.837,37.7,48.221l.467.159Z" transform="translate(210.257 31.595)" fill="#72c7f0"/>
        <path id="패스_14052" data-name="패스 14052" d="M20.376,0,0,68.976,56.617,31.065l-.247-.212ZM.86,67.806,20.633.871,55.8,31.016Z" transform="translate(90.292 137.543)" fill="#72c7f0"/>
        <path id="패스_14053" data-name="패스 14053" d="M13.606,0l-.421.258L53,65.207.135,50.241,0,50.717l54.084,15.31Z" transform="translate(267.539 59.034)" fill="#72c7f0"/>
        <path id="패스_14054" data-name="패스 14054" d="M0,0,4.57,63.789,39.8,27.61ZM4.984,62.656.566.993l38.47,26.69Z" transform="translate(113.879 31.573)" fill="#72c7f0"/>
      </g>
      <g id="그룹_6322" data-name="그룹 6322" transform="translate(480.744 188.8)">
        <path id="패스_14055" data-name="패스 14055" d="M85.078,0l-.4.246L0,52.425,83.035,39.855ZM2.322,51.574,84.537.913,82.563,39.428Z" transform="translate(204.626 0)" fill="#72c7f0"/>
        <path id="패스_14056" data-name="패스 14056" d="M27.068,0l-.162.19L0,31.792,51.033,20.9ZM1.317,31.006,27.12.7,49.965,20.621Z" transform="translate(216.516 87.787)" fill="#72c7f0"/>
        <path id="패스_14057" data-name="패스 14057" d="M12.2,0l-.149.46L0,37.525l.227.08,52.95,18.631ZM.619,37.219,12.373,1.072l39.47,54.171Z" transform="translate(164.665 63.447)" fill="#72c7f0"/>
        <path id="패스_14058" data-name="패스 14058" d="M17.994,0,0,69.83l76.737,23.6.145-.472L.6,69.5,18.472.123Z" transform="translate(173.359 148.566)" fill="#72c7f0"/>
        <path id="패스_14059" data-name="패스 14059" d="M56.782,0,1.708,59.434,28.557.27l-.45-.2L0,62,57.144.335Z" transform="translate(67.166 16.661)" fill="#72c7f0"/>
        <path id="패스_14060" data-name="패스 14060" d="M49.509,0l-.326.379L0,57.677l62.844,5.334ZM1,57.266,49.232,1.08,62.224,62.463Z" transform="translate(61.595 125.874)" fill="#72c7f0"/>
        <path id="패스_14061" data-name="패스 14061" d="M38.24,0,0,14.089,43.775,46.123ZM1.034,14.234,37.825.679,43.15,45.054Z" transform="translate(67.503 80.825)" fill="#72c7f0"/>
        <path id="패스_14062" data-name="패스 14062" d="M57.5,0,0,21.477,17.926,36.867ZM.956,21.647,55.346,1.331,17.913,36.2Z" transform="translate(39.076 16.164)" fill="#72c7f0"/>
        <path id="패스_14063" data-name="패스 14063" d="M39.868,0,39.49.1,0,10.8l.129.477L39.241.681l-5.853,32.03.486.089Z" transform="translate(0 37.385)" fill="#72c7f0"/>
      </g>
    </g>
  </g>
</svg>
