<svg xmlns="http://www.w3.org/2000/svg" xmlns:xlink="http://www.w3.org/1999/xlink" width="1920" height="1400" viewBox="0 0 1920 1400">
  <defs>
    <clipPath id="clip-path">
      <rect id="사각형_3712" data-name="사각형 3712" width="1920" height="1400" transform="translate(-16840 -14966)" fill="#fff" stroke="#707070" stroke-width="1"/>
    </clipPath>
  </defs>
  <g id="main_section3_obj4" transform="translate(16840 14966)" clip-path="url(#clip-path)">
    <g id="그룹_5737" data-name="그룹 5737">
      <path id="패스_1642" data-name="패스 1642" d="M1087.332,561.477l-75.129-126.2,192.466,83.57Zm-72.085-123.521,72.628,122,113.43-41.211Z" transform="translate(-17540.545 -15103.205)" fill="#72c7f0"/>
      <path id="패스_1628" data-name="패스 1628" d="M571.641,941.184l-.424-1.17,166.636-60.382L666.6,850.019l.478-1.15,74.214,30.842Z" transform="translate(-17282.59 -15345.137)" fill="#72c7f0"/>
      <path id="패스_1629" data-name="패스 1629" d="M1077.549,1046.774l-.885-.876,78.911-79.734L976.52,923.256l.291-1.211,181.206,43.423Z" transform="translate(-17519.672 -15387.941)" fill="#72c7f0"/>
      <path id="패스_1630" data-name="패스 1630" d="M557.466,579.251,454.871,388.127,385.72,438.344l-.732-1.007,70.305-51.055.337.628L558.563,578.662Z" transform="translate(-17173.654 -15074.545)" fill="#72c7f0"/>
      <path id="패스_12406" data-name="패스 12406" d="M562.86,1195.818l-135.971-75.7,60.27-52.556Zm-133.817-75.926,130.411,72.6-72.6-123.011Z" transform="translate(-17198.164 -15473.061)" fill="#72c7f0"/>
      <path id="패스_12407" data-name="패스 12407" d="M270.784,1340.588l65.3-147.279,1.138.5-64.114,144.607,196.523-71.292.425,1.17Z" transform="translate(-17106.852 -15546.617)" fill="#72c7f0"/>
      <path id="패스_12408" data-name="패스 12408" d="M371.25,189.956,353.993,51.9,243.676,181.152l-.947-.809,112.149-131.4L372.485,189.8Z" transform="translate(-17090.439 -14877.219)" fill="#72c7f0"/>
      <path id="패스_12409" data-name="패스 12409" d="M643.468,2015.357l-.373-.251-112.063-75.539.7-1.033,111.69,75.288,155.7-120.5.762.985Z" transform="translate(-17259.082 -15956.088)" fill="#72c7f0"/>
      <path id="패스_12410" data-name="패스 12410" d="M1894.25,1222.759l-84.47-53.484,50.088-76.405Zm-82.735-53.86,80.719,51.109-32.855-124.121Z" transform="translate(-18007.088 -15487.865)" fill="#72c7f0"/>
      <path id="패스_12411" data-name="패스 12411" d="M4626.177,1078.4l-1.138-.5,63.882-144.085-188.7,118.029-.66-1.056L4691.707,930.6Z" transform="translate(-19580.479 -15392.942)" fill="#72c7f0"/>
      <path id="패스_12412" data-name="패스 12412" d="M4325.975,1501.035l-74.214-30.842,169.647-61.473.424,1.17L4255.2,1470.272l71.256,29.613Z" transform="translate(-19435.529 -15672.621)" fill="#72c7f0"/>
      <path id="패스_12413" data-name="패스 12413" d="M4000.058,1404.964,3818.8,1361.528l70.166-65.124.847.913-68.461,63.542,179,42.894Z" transform="translate(-19182.266 -15606.923)" fill="#72c7f0"/>
      <path id="패스_12414" data-name="패스 12414" d="M4465.424,1839.634l-122.317-121.485,35.848-89.2,1.156.464-35.541,88.437,121.731,120.9Z" transform="translate(-19488.963 -15801.443)" fill="#72c7f0"/>
      <path id="패스_12415" data-name="패스 12415" d="M4671.775,2244.552l-34.35-122.317,1.2-.337,33.718,120.071,110.476-129.437.946.808Z" transform="translate(-19661.125 -16084.317)" fill="#72c7f0"/>
      <path id="패스_12416" data-name="패스 12416" d="M3734.715,1614.015l-46.756-161.785-94.115,9.494-.125-1.238,95.147-9.6.145.5,46.9,162.284Z" transform="translate(-19050.607 -15697.287)" fill="#72c7f0"/>
      <path id="패스_12417" data-name="패스 12417" d="M4235.71,428.409l-.782-.969,167.958-135.45,26.021,76.382-1.179.4-25.446-74.7Z" transform="translate(-19425.684 -15019.389)" fill="#72c7f0"/>
      <path id="패스_12418" data-name="패스 12418" d="M3382.415,985.459l-26.278-77.58,83.3-77.474.847.912-82.714,76.925,26.019,76.818Z" transform="translate(-18911.633 -15334.336)" fill="#72c7f0"/>
      <path id="패스_12419" data-name="패스 12419" d="M2974.067,1327.5l78.691-106.885,1,.738-76.537,103.96,133.143-37.69.339,1.2Z" transform="translate(-18688.141 -15562.59)" fill="#72c7f0"/>
      <path id="패스_12420" data-name="패스 12420" d="M1907.735,1470.925l42.512-70.145,123.709,31.034Zm43.1-68.713-40.5,66.822,158.347-37.258Z" transform="translate(-18064.387 -15667.978)" fill="#72c7f0"/>
      <path id="패스_12421" data-name="패스 12421" d="M2107.487,1598.72l-.738-.363-98.952-48.637,122.923-77.3Zm-97.14-49.134,96.212,47.291,22.423-121.9Z" transform="translate(-18122.918 -15709.882)" fill="#72c7f0"/>
      <path id="패스_12422" data-name="패스 12422" d="M2240.39,1625.319,2353.046,1516.5l11.522,59.742-.481.19Zm111.868-106.324-106.49,102.859,117.38-46.387Z" transform="translate(-18258.975 -15735.67)" fill="#72c7f0"/>
      <path id="패스_12423" data-name="패스 12423" d="M3177.381,1494.537l52.008-114.245,34.956,57.975Zm52.161-111.578-49.264,108.221,82.376-53.3Z" transform="translate(-18807.068 -15655.993)" fill="#72c7f0"/>
      <path id="패스_12424" data-name="패스 12424" d="M3441.978,1537.513l-.624-.465-60.041-44.819,89.288-18.8Zm-57.712-44.634,57.209,42.705,26.993-60.432Z" transform="translate(-18926.359 -15710.475)" fill="#72c7f0"/>
      <path id="패스_12425" data-name="패스 12425" d="M3101.825,1768.135l-.254-.035-107.21-14.581,179.681-39.977Zm-100.4-14.911,100.059,13.608,67.24-50.831Z" transform="translate(-18700.012 -15850.929)" fill="#72c7f0"/>
    </g>
  </g>
</svg>
