<svg xmlns="http://www.w3.org/2000/svg" xmlns:xlink="http://www.w3.org/1999/xlink" width="1920" height="1400" viewBox="0 0 1920 1400">
  <defs>
    <clipPath id="clip-path">
      <rect id="사각형_3713" data-name="사각형 3713" width="1920" height="1400" transform="translate(-17065 -13927)" fill="#fff" stroke="#707070" stroke-width="1"/>
    </clipPath>
    <filter id="패스_1334" x="688.545" y="432.136" width="542" height="542" filterUnits="userSpaceOnUse">
      <feOffset dy="3" input="SourceAlpha"/>
      <feGaussianBlur stdDeviation="16" result="blur"/>
      <feFlood flood-opacity="0.078"/>
      <feComposite operator="in" in2="blur"/>
      <feComposite in="SourceGraphic"/>
    </filter>
  </defs>
  <g id="main_section3_obj8" transform="translate(17065 13927)" clip-path="url(#clip-path)">
    <g id="그룹_5738" data-name="그룹 5738" transform="translate(-225 1039)">
      <text id="포워더" transform="translate(-15374.4 -14266.864)" fill="#fff" font-size="36" font-family="Pretendard-Regular, Pretendard"><tspan x="-46.67" y="0">포워더</tspan></text>
      <text id="해상_운송사" data-name="해상 운송사" transform="translate(-16597.4 -14390.864)" fill="#fff" font-size="36" font-family="Pretendard-Regular, Pretendard"><tspan x="-82.301" y="0">해상 운송사</tspan></text>
      <text id="수출입_기업" data-name="수출입 기업" transform="translate(-15063.4 -14194.864)" fill="#fff" font-size="36" font-family="Pretendard-Regular, Pretendard"><tspan x="-82.301" y="0">수출입 기업</tspan></text>
      <g id="그룹_1063" data-name="그룹 1063" transform="translate(-10401.455 -9500.864)">
        <g transform="matrix(1, 0, 0, 1, -6438.54, -5465.14)" filter="url(#패스_1334)">
          <g id="패스_1334-2" data-name="패스 1334" transform="translate(736.54 477.14)" fill="#151a1f">
            <path d="M 223 445 C 207.9369506835938 445 192.8836059570312 443.4825134277344 178.2582244873047 440.4897155761719 C 164.0050048828125 437.5731201171875 149.9850616455078 433.2210693359375 136.587890625 427.5545654296875 C 123.4336700439453 421.9907836914062 110.7463912963867 415.1043395996094 98.87838745117188 407.0864868164062 C 87.12288665771484 399.1446228027344 76.06849670410156 390.0238952636719 66.02227783203125 379.9777221679688 C 55.97611236572266 369.9314880371094 46.85538864135742 358.8771057128906 38.91350173950195 347.1216125488281 C 30.89566612243652 335.2536010742188 24.00922203063965 322.5663452148438 18.44544410705566 309.412109375 C 12.77894401550293 296.0149536132812 8.426888465881348 281.9949951171875 5.51027774810791 267.7417907714844 C 2.517499923706055 253.1163940429688 1 238.0630493164062 1 223 C 1 207.9369506835938 2.517499923706055 192.8836059570312 5.51027774810791 178.2582244873047 C 8.426888465881348 164.0050048828125 12.77894401550293 149.9850616455078 18.44544410705566 136.587890625 C 24.00922203063965 123.4336700439453 30.89566612243652 110.7463912963867 38.91350173950195 98.87838745117188 C 46.85538864135742 87.12288665771484 55.97611236572266 76.06849670410156 66.02227783203125 66.02227783203125 C 76.06849670410156 55.97611236572266 87.12288665771484 46.85538864135742 98.87838745117188 38.91350173950195 C 110.7463912963867 30.89566612243652 123.4336700439453 24.00922203063965 136.587890625 18.44544410705566 C 149.9850616455078 12.77894401550293 164.0050048828125 8.426888465881348 178.2582244873047 5.51027774810791 C 192.8836059570312 2.517499923706055 207.9369506835938 1 223 1 C 238.0630493164062 1 253.1163940429688 2.517499923706055 267.7417907714844 5.51027774810791 C 281.9949951171875 8.426888465881348 296.0149536132812 12.77894401550293 309.412109375 18.44544410705566 C 322.5663452148438 24.00922203063965 335.2536010742188 30.89566612243652 347.1216125488281 38.91350173950195 C 358.8771057128906 46.85538864135742 369.9314880371094 55.97611236572266 379.9777221679688 66.02227783203125 C 390.0238952636719 76.06849670410156 399.1446228027344 87.12288665771484 407.0864868164062 98.87838745117188 C 415.1043395996094 110.7463912963867 421.9907836914062 123.4336700439453 427.5545654296875 136.587890625 C 433.2210693359375 149.9850616455078 437.5731201171875 164.0050048828125 440.4897155761719 178.2582244873047 C 443.4825134277344 192.8836059570312 445 207.9369506835938 445 223 C 445 238.0630493164062 443.4825134277344 253.1163940429688 440.4897155761719 267.7417907714844 C 437.5731201171875 281.9949951171875 433.2210693359375 296.0149536132812 427.5545654296875 309.412109375 C 421.9907836914062 322.5663452148438 415.1043395996094 335.2536010742188 407.0864868164062 347.1216125488281 C 399.1446228027344 358.8771057128906 390.0238952636719 369.9314880371094 379.9777221679688 379.9777221679688 C 369.9314880371094 390.0238952636719 358.8771057128906 399.1446228027344 347.1216125488281 407.0864868164062 C 335.2536010742188 415.1043395996094 322.5663452148438 421.9907836914062 309.412109375 427.5545654296875 C 296.0149536132812 433.2210693359375 281.9949951171875 437.5731201171875 267.7417907714844 440.4897155761719 C 253.1163940429688 443.4825134277344 238.0630493164062 445 223 445 Z" stroke="none"/>
            <path d="M 223 2 C 208.0041198730469 2 193.0182952880859 3.510650634765625 178.4587097167969 6.48992919921875 C 164.2701110839844 9.393341064453125 150.3138122558594 13.72564697265625 136.9774780273438 19.36648559570312 C 123.8827209472656 24.90505981445312 111.2527160644531 31.76040649414062 99.43817138671875 39.7421875 C 87.7354736328125 47.64840698242188 76.7305908203125 56.72824096679688 66.72940063476562 66.72940063476562 C 56.72824096679688 76.7305908203125 47.64840698242188 87.7354736328125 39.7421875 99.43817138671875 C 31.76040649414062 111.2527160644531 24.90505981445312 123.8827209472656 19.36648559570312 136.9774780273438 C 13.72564697265625 150.3138122558594 9.393341064453125 164.2701110839844 6.48992919921875 178.4587097167969 C 3.510650634765625 193.0182952880859 2 208.0041198730469 2 223 C 2 237.9958801269531 3.510650634765625 252.9817657470703 6.48992919921875 267.5413513183594 C 9.393341064453125 281.7298889160156 13.72564697265625 295.6861572265625 19.36648559570312 309.0225830078125 C 24.90505981445312 322.1173095703125 31.76040649414062 334.7473449707031 39.7421875 346.5618286132812 C 47.64840698242188 358.2645874023438 56.72824096679688 369.2694091796875 66.72940063476562 379.2705993652344 C 76.7305908203125 389.2718200683594 87.73541259765625 398.3516540527344 99.43817138671875 406.2578735351562 C 111.2527160644531 414.2395935058594 123.8827209472656 421.0949401855469 136.9774780273438 426.633544921875 C 150.3138122558594 432.2743530273438 164.2701110839844 436.6066589355469 178.4587097167969 439.5100708007812 C 193.0182342529297 442.4893493652344 208.0041198730469 444 223 444 C 237.9958801269531 444 252.9817657470703 442.4893493652344 267.5413513183594 439.5100708007812 C 281.7298889160156 436.6066589355469 295.6861572265625 432.2743530273438 309.0225830078125 426.633544921875 C 322.1173095703125 421.0949401855469 334.7473449707031 414.2395935058594 346.5618286132812 406.2578735351562 C 358.2645874023438 398.3516540527344 369.2694091796875 389.2718200683594 379.2705993652344 379.2705993652344 C 389.2718200683594 369.2694091796875 398.3516540527344 358.2645874023438 406.2578735351562 346.5618286132812 C 414.2395935058594 334.7473449707031 421.0949401855469 322.1173095703125 426.633544921875 309.0225830078125 C 432.2743530273438 295.6861572265625 436.6066589355469 281.7298889160156 439.5100708007812 267.5413513183594 C 442.4893493652344 252.9817657470703 444 237.9958801269531 444 223 C 444 208.0041198730469 442.4893493652344 193.0182342529297 439.5100708007812 178.4587097167969 C 436.6066589355469 164.2701110839844 432.2743530273438 150.3138122558594 426.633544921875 136.9774780273438 C 421.0949401855469 123.8827209472656 414.2395935058594 111.2527160644531 406.2578735351562 99.43817138671875 C 398.3516540527344 87.73541259765625 389.2718200683594 76.7305908203125 379.2705993652344 66.72940063476562 C 369.2694091796875 56.72824096679688 358.2645874023438 47.64840698242188 346.5618286132812 39.7421875 C 334.7473449707031 31.76040649414062 322.1173095703125 24.90505981445312 309.0225830078125 19.36648559570312 C 295.6861572265625 13.72564697265625 281.7298889160156 9.393341064453125 267.5413513183594 6.48992919921875 C 252.9817657470703 3.510650634765625 237.9958801269531 2 223 2 M 223 0 C 346.1595458984375 0 446 99.84051513671875 446 223 C 446 346.1595458984375 346.1595458984375 446 223 446 C 99.84051513671875 446 0 346.1595458984375 0 223 C 0 99.84051513671875 99.84051513671875 0 223 0 Z" stroke="none" fill="#72c7f0"/>
          </g>
        </g>
        <g id="그룹_543" data-name="그룹 543" transform="translate(-4638.333 -4313.901)">
          <g id="Layer_1" data-name="Layer 1" transform="translate(-1032.04 -471)">
            <g id="그룹_22" data-name="그룹 22">
              <rect id="사각형_10" data-name="사각형 10" width="39.782" height="39.782" transform="translate(0.02)" fill="#ffa727"/>
              <circle id="타원_7" data-name="타원 7" cx="17.56" cy="17.56" r="17.56" transform="translate(2.341 2.341)" fill="#ffff50"/>
              <path id="패스_89" data-name="패스 89" d="M39.8,39.8V0h-.214L0,39.589V39.8Z" fill="#cfc"/>
              <path id="패스_90" data-name="패스 90" d="M.98,57.757H40.539V23.9A40.043,40.043,0,0,1,.98,57.757Z" transform="translate(-0.736 -17.955)" fill="#6cf"/>
            </g>
          </g>
          <g id="Layer_1-2" data-name="Layer 1" transform="translate(-978.157 -471)">
            <g id="그룹_24" data-name="그룹 24">
              <path id="패스_91" data-name="패스 91" d="M30.935,38.877l-3.329-8.354H8.526L5.2,38.877H0L15.127,1.23h5.811L36.121,38.877H30.93ZM18.063,5.41,9.88,26.348H26.191Z" transform="translate(0 -0.611)" fill="#72c7f0"/>
              <path id="패스_92" data-name="패스 92" d="M92.993,0c11.119,0,18.683,8.354,18.683,19.473s-7.564,19.473-18.683,19.473S74.31,30.592,74.31,19.473,81.818,0,92.993,0Zm0,4.175c-8.465,0-13.828,6.491-13.828,15.294s5.363,15.294,13.828,15.294,13.828-6.546,13.828-15.294S101.4,4.175,92.993,4.175Z" transform="translate(-36.889)" fill="#72c7f0"/>
              <path id="패스_93" data-name="패스 93" d="M184.86,38.877l-9.6-14.956h-7.508V38.877H163.07V1.23H178.2c6.889,0,11.8,4.4,11.8,11.346s-4.628,10.5-9.764,10.948l10.162,15.354h-5.529ZM177.633,5.41h-9.88V19.8h9.88c4.462,0,7.508-2.991,7.508-7.226S182.1,5.41,177.633,5.41Z" transform="translate(-80.952 -0.611)" fill="#72c7f0"/>
              <path id="패스_94" data-name="패스 94" d="M246.873,0c11.119,0,18.683,8.354,18.683,19.473s-7.564,19.473-18.683,19.473S228.19,30.592,228.19,19.473,235.7,0,246.873,0Zm0,4.175c-8.465,0-13.828,6.491-13.828,15.294s5.363,15.294,13.828,15.294S260.7,28.215,260.7,19.468,255.282,4.175,246.873,4.175Z" transform="translate(-113.279)" fill="#72c7f0"/>
              <path id="패스_95" data-name="패스 95" d="M336.009,38.877l-3.329-8.354H313.6l-3.329,8.354H305.08L320.2,1.23h5.811L341.2,38.877H336ZM323.138,5.41l-8.183,20.939h16.311L323.138,5.41Z" transform="translate(-151.45 -0.611)" fill="#72c7f0"/>
              <path id="패스_96" data-name="패스 96" d="M392.07,39.38V2.94H396.6v32.4h16.943V39.38Z" transform="translate(-182.634 -1.773)" fill="#72c7f0"/>
              <path id="패스_97" data-name="패스 97" d="M447.947,39.38,444.724,31.3H426.258l-3.223,8.081H418.01L432.658,2.94h5.629l14.695,36.44h-5.025Zm-12.456-32.4-7.923,20.268h15.791L435.491,6.981Z" transform="translate(-184.479 -1.773)" fill="#72c7f0"/>
              <path id="패스_98" data-name="패스 98" d="M460.76,39.38V2.94h16.227c6.335,0,10.218,3.827,10.218,9.289a8.285,8.285,0,0,1-6.391,8.36c3.883.6,7.106,4.589,7.106,8.964,0,5.843-3.883,9.837-10.543,9.837H460.769Zm4.533-20.658h10.924c4.1,0,6.288-2.508,6.288-5.843s-2.183-5.9-6.288-5.9H465.293v11.75Zm0,16.618h11.147c4.263,0,6.771-2.406,6.771-6.279,0-3.335-2.294-6.279-6.771-6.279H465.293V35.348Z" transform="translate(-187.52 -1.773)" fill="#72c7f0"/>
              <path id="패스_99" data-name="패스 99" d="M498.086,30.755a15.409,15.409,0,0,0,11.471,5.192c6.5,0,8.583-3.493,8.583-6.279,0-4.375-4.421-5.573-9.233-6.883-5.843-1.533-12.345-3.167-12.345-10.329,0-6.01,5.36-10.106,12.512-10.106,5.573,0,9.892,1.858,12.948,5.081l-2.731,3.335a13.965,13.965,0,0,0-10.543-4.375c-4.375,0-7.487,2.35-7.487,5.8,0,3.66,4.208,4.756,8.852,6.01,5.954,1.588,12.735,3.446,12.735,11.091,0,5.3-3.6,10.71-13.441,10.71-6.335,0-10.979-2.406-13.989-5.8l2.675-3.446Z" transform="translate(-189.985 -1.731)" fill="#72c7f0"/>
            </g>
          </g>
        </g>
      </g>
      <text id="항공운송사" transform="translate(-16270.4 -14297.862)" fill="#fff" font-size="36" font-family="Pretendard-Regular, Pretendard"><tspan x="-77.783" y="0">항공운송사</tspan></text>
    </g>
  </g>
</svg>
