<svg xmlns="http://www.w3.org/2000/svg" xmlns:xlink="http://www.w3.org/1999/xlink" width="1920" height="1400" viewBox="0 0 1920 1400">
  <defs>
    <clipPath id="clip-path">
      <rect id="사각형_3711" data-name="사각형 3711" width="1920" height="1400" transform="translate(-16840 -14966)" fill="#fff" stroke="#707070" stroke-width="1"/>
    </clipPath>
  </defs>
  <g id="main_section3_obj2" transform="translate(16840 14966)" clip-path="url(#clip-path)">
    <g id="그룹_5736" data-name="그룹 5736">
      <path id="패스_12389" data-name="패스 12389" d="M746.44,1108.779,842.348,918.41l20.242,111.33Zm95.347-186.489-92.071,182.754,111.5-75.877Z" transform="translate(-17385.086 -15385.814)" fill="#72c7f0"/>
      <path id="패스_12390" data-name="패스 12390" d="M1223.971,1296.255l-6.834-77.316,67.918,34.6Zm-5.4-75.186,6.447,72.931,57.62-40.293Z" transform="translate(-17660.422 -15561.609)" fill="#72c7f0"/>
      <path id="패스_12391" data-name="패스 12391" d="M657.088,579.54l-1.23-.192,21.922-140.629-124.472-50.45.468-1.154,125.387,50.821Z" transform="translate(-17272.113 -15075.032)" fill="#72c7f0"/>
      <path id="패스_12392" data-name="패스 12392" d="M300.106,425.669l-60.1-60.942,130.311,9.248-.088,1.242L243.214,366.2l57.778,58.592Z" transform="translate(-17088.85 -15061.937)" fill="#72c7f0"/>
      <path id="패스_12393" data-name="패스 12393" d="M1415.315,1461.777l-39.831-162.714,86.442,58.9-.214.476Zm-37.85-159.858,38.2,156.043,44.7-99.558Z" transform="translate(-17753.047 -15608.478)" fill="#72c7f0"/>
      <path id="패스_12394" data-name="패스 12394" d="M1375.969,1141.785l13.961-116.344,96.459,35.538Zm15.01-114.631-13.432,111.933,106.234-77.743Z" transform="translate(-17753.33 -15448.422)" fill="#72c7f0"/>
      <path id="패스_12395" data-name="패스 12395" d="M1637.37,1048.385v-45.914l124.87,38.62Zm1.245-44.226v42.906l116.688-6.816Z" transform="translate(-17906.236 -15434.986)" fill="#72c7f0"/>
      <path id="패스_12396" data-name="패스 12396" d="M4636,1531.616l-110.091-121.852-94.944,90.714-.859-.9,95.869-91.6,110.949,122.8Z" transform="translate(-19539.854 -15672.188)" fill="#72c7f0"/>
      <path id="패스_12397" data-name="패스 12397" d="M4664.427,369.832l-.278-1.214,105.092-24.033-130.909-50.318.446-1.162L4773.5,344.889Z" transform="translate(-19661.654 -15020.041)" fill="#72c7f0"/>
      <path id="패스_12398" data-name="패스 12398" d="M4638.854,2022.989l-.078-1.243,144.494-9.082-20.124-70.229,1.2-.343,20.551,71.718Z" transform="translate(-19661.914 -15984.618)" fill="#72c7f0"/>
      <path id="패스_12399" data-name="패스 12399" d="M3951.281,1927.819,3753.65,1842h75.412l.161.113Zm-191.637-84.569,180.893,78.546-111.867-78.546Z" transform="translate(-19144.158 -15926.072)" fill="#72c7f0"/>
      <path id="패스_12400" data-name="패스 12400" d="M3959.79,809.052,3933.167,691.57l.387-.232L4060.368,615.5Zm-25.209-116.876,25.672,113.285,96.985-186.636Z" transform="translate(-19249.168 -15208.628)" fill="#72c7f0"/>
      <path id="패스_12401" data-name="패스 12401" d="M3419.383,1412.829l-.806-.25-124.064-38.37,124.87-7.294Zm-117.933-37.778,116.688,36.089v-42.906Z" transform="translate(-18875.586 -15648.168)" fill="#72c7f0"/>
      <path id="패스_12402" data-name="패스 12402" d="M3034.094,1549.933l-109.8-45.463.477-1.151,102.707,42.527-81.355-70.534.816-.942Z" transform="translate(-18659.027 -15711.024)" fill="#72c7f0"/>
      <path id="패스_12403" data-name="패스 12403" d="M2956.083,1655.945l-32.651-110.512,1.194-.352,32.1,108.633,73.146-64.928.827.932Z" transform="translate(-18658.521 -15752.386)" fill="#72c7f0"/>
      <path id="패스_12404" data-name="패스 12404" d="M2756.683,1793.656l36.428-36.862.365.117,68.155,22Zm36.775-35.442-33.3,33.7,95.934-13.479Z" transform="translate(-18560.98 -15876.229)" fill="#72c7f0"/>
      <path id="패스_12405" data-name="패스 12405" d="M2956.358,1326.327l-14.235-53.173.415-.239,91.725-52.711.62,1.079-91.311,52.473,13.988,52.249Z" transform="translate(-18669.455 -15562.35)" fill="#72c7f0"/>
    </g>
  </g>
</svg>
