<svg xmlns="http://www.w3.org/2000/svg" xmlns:xlink="http://www.w3.org/1999/xlink" width="393" height="673" viewBox="0 0 393 673">
  <defs>
    <clipPath id="clip-path">
      <rect id="사각형_3885" data-name="사각형 3885" width="393" height="673" transform="translate(-20954 -11016)" fill="#fff" stroke="#707070" stroke-width="1"/>
    </clipPath>
    <clipPath id="clip-path-2">
      <rect id="사각형_3883" data-name="사각형 3883" width="762" height="556" transform="translate(-0.416 -0.491)" fill="#fff" stroke="#707070" stroke-width="1"/>
    </clipPath>
    <clipPath id="clip-path-3">
      <rect id="사각형_3884" data-name="사각형 3884" width="762" height="556" transform="translate(0 0.001)" fill="#fff" stroke="#707070" stroke-width="1"/>
    </clipPath>
  </defs>
  <g id="main_section3_obj2_m" transform="translate(20954 11016)" clip-path="url(#clip-path)">
    <g id="main_section3_obj4" transform="translate(-21225.85 -10781.016) rotate(-30)" clip-path="url(#clip-path-2)">
      <g id="그룹_6095" data-name="그룹 6095" transform="translate(-3.057 54.6)">
        <path id="패스_13422" data-name="패스 13422" d="M1041.987,485.308,1012.2,435.277l76.3,33.131Zm-28.578-48.969L1042.2,484.7l44.968-16.338Z" transform="translate(-885.592 -371.71)" fill="#72c7f0"/>
        <path id="패스_13423" data-name="패스 13423" d="M571.385,885.467l-.168-.464,66.061-23.938-28.249-11.74.19-.456L638.64,861.1Z" transform="translate(-517.167 -717.248)" fill="#72c7f0"/>
        <path id="패스_13424" data-name="패스 13424" d="M1016.572,971.493l-.351-.347,31.284-31.61-70.985-17.01.115-.48,71.837,17.215Z" transform="translate(-855.78 -778.384)" fill="#72c7f0"/>
        <path id="패스_13425" data-name="패스 13425" d="M453.365,462.782l-40.673-75.769-27.414,19.908-.29-.4,27.872-20.24.134.249L453.8,462.549Z" transform="translate(-361.58 -330.776)" fill="#72c7f0"/>
        <path id="패스_13426" data-name="패스 13426" d="M480.793,1118.408l-53.9-30.01,23.894-20.836Zm-53.051-30.1,51.7,28.783-28.784-48.767Z" transform="translate(-396.587 -899.957)" fill="#72c7f0"/>
        <path id="패스_13427" data-name="패스 13427" d="M270.784,1251.7l25.887-58.387.451.2-25.417,57.328,77.91-28.263.168.464Z" transform="translate(-266.168 -1005.013)" fill="#72c7f0"/>
        <path id="패스_13428" data-name="패스 13428" d="M293.68,104.847l-6.841-54.731L243.1,101.357l-.375-.321,44.461-52.092,6.98,55.841Z" transform="translate(-242.729 -48.945)" fill="#72c7f0"/>
        <path id="패스_13429" data-name="패스 13429" d="M575.606,1941.7l-.148-.1-44.426-29.947.276-.41,44.278,29.847,61.727-47.773.3.391Z" transform="translate(-483.593 -1589.841)" fill="#72c7f0"/>
        <path id="패스_13430" data-name="패스 13430" d="M1843.268,1144.363l-33.488-21.2,19.857-30.29Zm-32.8-21.352,32,20.262-13.025-49.207Z" transform="translate(-1551.933 -921.101)" fill="#72c7f0"/>
        <path id="패스_13431" data-name="패스 13431" d="M4549.754,989.19l-.451-.2,25.326-57.121-74.81,46.791-.262-.418,76.176-47.646Z" transform="translate(-3799.129 -785.527)" fill="#72c7f0"/>
        <path id="패스_13432" data-name="패스 13432" d="M4281.182,1445.317l-29.422-12.227,67.255-24.37.168.464-66.062,23.938,28.249,11.74Z" transform="translate(-3592.105 -1184.979)" fill="#72c7f0"/>
        <path id="패스_13433" data-name="패스 13433" d="M3890.656,1339.442l-71.86-17.22,27.816-25.818.336.362-27.141,25.191,70.963,17Z" transform="translate(-3230.382 -1091.145)" fill="#72c7f0"/>
        <path id="패스_13434" data-name="패스 13434" d="M4391.6,1712.471l-48.491-48.162,14.211-35.364.458.184-14.09,35.06,48.259,47.931Z" transform="translate(-3668.422 -1368.969)" fill="#72c7f0"/>
        <path id="패스_13435" data-name="패스 13435" d="M4651.043,2164.87l-13.618-48.492.476-.134,13.367,47.6,43.8-51.314.375.32Z" transform="translate(-3914.312 -1772.984)" fill="#72c7f0"/>
        <path id="패스_13436" data-name="패스 13436" d="M3649.616,1515.557l-18.536-64.138-37.311,3.764-.05-.491,37.72-3.805.057.2,18.593,64.336Z" transform="translate(-3042.34 -1220.208)" fill="#72c7f0"/>
        <path id="패스_13437" data-name="패스 13437" d="M4235.238,346.072l-.31-.384,66.585-53.7,10.315,30.281-.467.159-10.088-29.612Z" transform="translate(-3578.043 -251.999)" fill="#72c7f0"/>
        <path id="패스_13438" data-name="패스 13438" d="M3366.555,891.875l-10.417-30.756,33.025-30.714.336.362-32.791,30.5,10.315,30.454Z" transform="translate(-2843.85 -701.823)" fill="#72c7f0"/>
        <path id="패스_13439" data-name="패스 13439" d="M2974.067,1262.989l31.2-42.374.4.293-30.343,41.214,52.783-14.942.134.475Z" transform="translate(-2524.647 -1027.827)" fill="#72c7f0"/>
        <path id="패스_13440" data-name="패스 13440" d="M1907.735,1428.588l16.854-27.808,49.043,12.3Zm17.087-27.241-16.055,26.491,62.775-14.771Z" transform="translate(-1633.77 -1178.346)" fill="#72c7f0"/>
        <path id="패스_13441" data-name="패스 13441" d="M2047.318,1522.489l-.293-.144-39.229-19.282,48.732-30.646Zm-38.51-19.479,38.142,18.748,8.889-48.325Z" transform="translate(-1717.368 -1238.196)" fill="#72c7f0"/>
        <path id="패스_13442" data-name="패스 13442" d="M2240.39,1559.642l44.661-43.139,4.568,23.684-.191.075Zm44.349-42.151-42.217,40.777,46.534-18.39Z" transform="translate(-1911.69 -1275.028)" fill="#72c7f0"/>
        <path id="패스_13443" data-name="패스 13443" d="M3177.381,1425.583,3198,1380.292l13.858,22.984Zm20.679-44.234-19.53,42.9,32.657-21.131Z" transform="translate(-2694.506 -1161.23)" fill="#72c7f0"/>
        <path id="패스_13444" data-name="패스 13444" d="M3405.363,1498.836l-.248-.185-23.8-17.768,35.4-7.452Zm-22.879-17.695,22.68,16.93,10.7-23.958Z" transform="translate(-2864.883 -1239.043)" fill="#72c7f0"/>
        <path id="패스_13445" data-name="패스 13445" d="M3036.963,1735.185l-.1-.014-42.5-5.78,71.233-15.849Zm-39.8-5.911,39.667,5.395,26.657-20.151Z" transform="translate(-2541.601 -1439.647)" fill="#72c7f0"/>
      </g>
    </g>
    <g id="main_section3_obj4-2" data-name="main_section3_obj4" transform="matrix(-0.174, 0.985, -0.985, -0.174, -20417.564, -11058.456)" clip-path="url(#clip-path-3)">
      <g id="그룹_6096" data-name="그룹 6096" transform="translate(-2.64 109.023)">
        <path id="패스_13446" data-name="패스 13446" d="M29.784,0,0,50.031,76.3,16.9ZM1.207,48.969,30,.6,74.968,16.941Z" transform="translate(126.611 278.287)" fill="#72c7f0"/>
        <path id="패스_13447" data-name="패스 13447" d="M.168,0,0,.464,66.061,24.4,37.812,36.142,38,36.6,67.423,24.371Z" transform="translate(54.05 223.667)" fill="#72c7f0"/>
        <path id="패스_13448" data-name="패스 13448" d="M40.052,0,39.7.347l31.284,31.61L0,48.967l.115.48L71.953,32.233Z" transform="translate(120.74 198.777)" fill="#72c7f0"/>
        <path id="패스_13449" data-name="패스 13449" d="M68.377,0,27.7,75.769.29,55.861l-.29.4L27.872,76.5l.134-.249L68.812.234Z" transform="translate(23.408 259.879)" fill="#72c7f0"/>
        <path id="패스_13450" data-name="패스 13450" d="M53.9,0,0,30.01,23.894,50.846ZM.854,30.1l51.7-28.783L23.77,50.083Z" transform="translate(30.302 173.434)" fill="#72c7f0"/>
        <path id="패스_13451" data-name="패스 13451" d="M0,0,25.887,58.387l.451-.2L.921.859l77.91,28.263L79,28.658Z" transform="translate(4.616 145.203)" fill="#72c7f0"/>
        <path id="패스_13452" data-name="패스 13452" d="M50.951,0,44.11,54.731.375,3.49,0,3.811,44.461,55.9,51.441.061Z" transform="translate(0 335.983)" fill="#72c7f0"/>
        <path id="패스_13453" data-name="패스 13453" d="M44.574,0l-.148.1L0,30.046l.276.41L44.554.609l61.727,47.773.3-.391Z" transform="translate(47.438 40.027)" fill="#72c7f0"/>
        <path id="패스_13454" data-name="패스 13454" d="M33.488,0,0,21.2l19.857,30.29ZM.688,21.352l32-20.262L19.663,50.3Z" transform="translate(257.847 168.623)" fill="#72c7f0"/>
        <path id="패스_13455" data-name="패스 13455" d="M50.2,0l-.451.2L75.071,57.322.262,10.53,0,10.949,76.176,58.594Z" transform="translate(700.429 188.223)" fill="#72c7f0"/>
        <path id="패스_13456" data-name="패스 13456" d="M29.422,0,0,12.227,67.255,36.6l.168-.464L1.362,12.2,29.611.456Z" transform="translate(659.655 131.548)" fill="#72c7f0"/>
        <path id="패스_13457" data-name="패스 13457" d="M71.86,0,0,17.22,27.816,43.038l.336-.362L1.011,17.485,71.975.48Z" transform="translate(588.415 143.589)" fill="#72c7f0"/>
        <path id="패스_13458" data-name="패스 13458" d="M48.492,0,0,48.162,14.211,83.526l.458-.184L.58,48.281,48.839.35Z" transform="translate(674.686 48.384)" fill="#72c7f0"/>
        <path id="패스_13459" data-name="패스 13459" d="M13.618,0,0,48.492l.476.134,13.367-47.6,43.8,51.314.375-.32Z" transform="translate(723.113 0.001)" fill="#72c7f0"/>
        <path id="패스_13460" data-name="패스 13460" d="M55.9,0,37.36,64.138.05,60.375,0,60.865l37.72,3.805.057-.2L56.371.137Z" transform="translate(551.38 96.537)" fill="#72c7f0"/>
        <path id="패스_13461" data-name="패스 13461" d="M.31,0,0,.384l66.585,53.7L76.9,23.8l-.467-.159L66.345,53.255Z" transform="translate(656.886 297.813)" fill="#72c7f0"/>
        <path id="패스_13462" data-name="패스 13462" d="M10.418,0,0,30.756,33.026,61.47l.336-.362L.57,30.612,10.885.158Z" transform="translate(512.288 201.833)" fill="#72c7f0"/>
        <path id="패스_13463" data-name="패스 13463" d="M0,0,31.2,42.374l.4-.293L1.251.867,54.035,15.809l.134-.475Z" transform="translate(449.421 156.723)" fill="#72c7f0"/>
        <path id="패스_13464" data-name="패스 13464" d="M0,0,16.853,27.808,65.9,15.505ZM17.087,27.241,1.032.75,63.807,15.521Z" transform="translate(273.964 141.644)" fill="#72c7f0"/>
        <path id="패스_13465" data-name="패스 13465" d="M39.521,0l-.293.144L0,19.426,48.732,50.072ZM1.011,19.479,39.154.731l8.889,48.325Z" transform="translate(290.429 107.593)" fill="#72c7f0"/>
        <path id="패스_13466" data-name="패스 13466" d="M0,0,44.661,43.139l4.568-23.684-.191-.075ZM44.349,42.151,2.132,1.374l46.534,18.39Z" transform="translate(328.7 107.272)" fill="#72c7f0"/>
        <path id="패스_13467" data-name="패스 13467" d="M0,0,20.618,45.291,34.476,22.308ZM20.679,44.234,1.148,1.331,33.806,22.462Z" transform="translate(482.875 127.532)" fill="#72c7f0"/>
        <path id="패스_13468" data-name="패스 13468" d="M24.05,0,23.8.185,0,17.953,35.4,25.4ZM1.171,17.695,23.851.765l10.7,23.958Z" transform="translate(516.43 132.093)" fill="#72c7f0"/>
        <path id="패스_13469" data-name="패스 13469" d="M42.6,0l-.1.014L0,5.794,71.233,21.643ZM2.8,5.911,42.468.517,69.125,20.668Z" transform="translate(452.759 96.347)" fill="#72c7f0"/>
      </g>
    </g>
  </g>
</svg>
