<svg xmlns="http://www.w3.org/2000/svg" xmlns:xlink="http://www.w3.org/1999/xlink" width="1920" height="1400" viewBox="0 0 1920 1400">
  <defs>
    <clipPath id="clip-path">
      <rect id="사각형_3709" data-name="사각형 3709" width="1920" height="1400" transform="translate(-18816 -12668)" fill="#fff" stroke="#707070" stroke-width="1"/>
    </clipPath>
  </defs>
  <g id="main_section3_obj3" transform="translate(18816 12668)" clip-path="url(#clip-path)">
    <g id="그룹_5730" data-name="그룹 5730" transform="translate(-1976 2298)">
      <path id="패스_1651" data-name="패스 1651" d="M4406.984,1053.115l-65.447-74.954,256.234-45.174.216,1.226L4343.926,979l64,73.292Z" transform="translate(-19488.043 -15394.341)" fill="#72c7f0"/>
      <path id="패스_1652" data-name="패스 1652" d="M4344.2,710.475l-1.054-.664,148.49-235.733.513.908,107.214,189.868-1.085.612-106.7-188.959Z" transform="translate(-19488.984 -15125.902)" fill="#72c7f0"/>
      <path id="패스_1654" data-name="패스 1654" d="M4073.045,1163.41l-78.211-107.591,146.216-14.757Zm-75.93-106.57,75.79,104.26,65.9-118.559Z" transform="translate(-19285.238 -15457.56)" fill="#72c7f0"/>
      <path id="패스_1655" data-name="패스 1655" d="M4096.4,1404.388l-112.433-109,82.765,15.021-.223,1.225-78.736-14.289,109.494,106.146Z" transform="translate(-19278.881 -15606.33)" fill="#72c7f0"/>
      <path id="패스_1657" data-name="패스 1657" d="M3909.645,1168.426l-57.185-51.21,61.026-42.675Zm-55.185-51.09,54.048,48.4,3.631-88.736Z" transform="translate(-19201.957 -15477.143)" fill="#72c7f0"/>
      <path id="패스_1658" data-name="패스 1658" d="M4516.1,1840.112l-86.614-210.7,1.152-.474,86.046,209.324,124.3-79.7.671,1.048Z" transform="translate(-19539.488 -15801.437)" fill="#72c7f0"/>
      <path id="패스_1659" data-name="패스 1659" d="M4427.359,2087l-212.507-164.44.317-.482,53.652-81.317Zm-210.832-164.718,205.86,159.3-153.579-238.537Z" transform="translate(-19413.939 -15925.344)" fill="#72c7f0"/>
      <path id="패스_1660" data-name="패스 1660" d="M4103.587,1674.682H3930.943l135.168-120.852Zm-169.384-1.245H4101.9l-36.4-117.386Z" transform="translate(-19247.867 -15757.504)" fill="#72c7f0"/>
      <path id="패스_1664" data-name="패스 1664" d="M3492.378,1051.756l-73.256-69.446.141-.384,57.871-157.562.2,2.922Zm-71.806-69.786,70.35,66.69-14.639-218.369Z" transform="translate(-18948.477 -15330.802)" fill="#72c7f0"/>
      <path id="패스_1665" data-name="패스 1665" d="M3220.417,1278.25l-.539-.633-58.076-68.176,108.735-7.646Zm-56.068-67.74,55.938,65.667,47.832-72.964Z" transform="translate(-18797.957 -15551.582)" fill="#72c7f0"/>
    </g>
    <g id="그룹_5731" data-name="그룹 5731" transform="translate(-927 281)">
      <g id="그룹_5728" data-name="그룹 5728" transform="translate(-1049 2017)">
        <path id="패스_1638" data-name="패스 1638" d="M415.282,897.781l-.429-.475L304.333,774.978l.924-.835L415.347,896l94.943-90.713.86.9Z" transform="translate(-17126.475 -15301.426)" fill="#72c7f0"/>
        <path id="패스_1639" data-name="패스 1639" d="M379.88,1735.978l-107.6-190.557,1.084-.612,106.824,189.178,192.6-180.352.851.908Z" transform="translate(-17107.723 -15752.227)" fill="#72c7f0"/>
        <path id="패스_1640" data-name="패스 1640" d="M531.828,1748.655l-.207-1.228,267.255-45.094-74.7-134.952,1.089-.6,75.549,136.49-.867.146Z" transform="translate(-17259.428 -15765.078)" fill="#72c7f0"/>
        <path id="패스_1641" data-name="패스 1641" d="M649.442,238.7,504.035,44.545l213.66,165.332ZM510.539,51.152,649.855,237.178l65.393-27.619Z" transform="translate(-17243.291 -14874.646)" fill="#72c7f0"/>
        <path id="패스_1643" data-name="패스 1643" d="M1175.993,1605.89l23.985-207.03,99.728,119.505Zm24.888-204.005-23.33,201.377,120.335-85.135Z" transform="translate(-17636.354 -15666.854)" fill="#72c7f0"/>
        <path id="패스_1644" data-name="패스 1644" d="M1579.766,1248.1l24.115-139.616,73.193,69.385Zm24.946-137.112-23.2,134.316,93.614-67.565Z" transform="translate(-17872.541 -15497.002)" fill="#72c7f0"/>
        <path id="패스_1633" data-name="패스 1633" d="M575.811,1453.33l-302.273-9.03.037-1.244,298.5,8.917-101.009-79.6.771-.977Z" transform="translate(-17108.461 -15650.791)" fill="#72c7f0"/>
        <path id="패스_1635" data-name="패스 1635" d="M1379.507,790.441,1193.1,678.6l.641-1.068,182.984,109.791L1308.235,636.4l1.133-.515Z" transform="translate(-17646.359 -15220.551)" fill="#72c7f0"/>
        <path id="패스_1648" data-name="패스 1648" d="M1078.291,1047.2l-82.405-14.955.222-1.225,79.094,14.355L975.677,922.922l.966-.785Z" transform="translate(-17519.18 -15387.994)" fill="#72c7f0"/>
      </g>
    </g>
  </g>
</svg>
