<svg xmlns="http://www.w3.org/2000/svg" xmlns:xlink="http://www.w3.org/1999/xlink" width="393" height="673" viewBox="0 0 393 673">
  <defs>
    <clipPath id="clip-path">
      <rect id="사각형_4108" data-name="사각형 4108" width="393" height="673" transform="translate(0 2166)" fill="#fff" stroke="#707070" stroke-width="1"/>
    </clipPath>
    <linearGradient id="linear-gradient" x1="0.5" x2="0.5" y2="1" gradientUnits="objectBoundingBox">
      <stop offset="0"/>
      <stop offset="1" stop-opacity="0"/>
    </linearGradient>
    <linearGradient id="linear-gradient-2" y1="1" y2="0" xlink:href="#linear-gradient"/>
    <filter id="패스_14794" x="67" y="170.595" width="260" height="260" filterUnits="userSpaceOnUse">
      <feOffset dy="3" input="SourceAlpha"/>
      <feGaussianBlur stdDeviation="16" result="blur"/>
      <feFlood flood-opacity="0.078"/>
      <feComposite operator="in" in2="blur"/>
      <feComposite in="SourceGraphic"/>
    </filter>
  </defs>
  <g id="마스크_그룹_3307" data-name="마스크 그룹 3307" transform="translate(0 -2166)" clip-path="url(#clip-path)">
    <text id="해상_운송사" data-name="해상 운송사" transform="translate(241 2706.979)" fill="#fff" font-size="18" font-family="Pretendard-Regular, Pretendard"><tspan x="-41.15" y="0">해상 운송사</tspan></text>
    <rect id="사각형_4105" data-name="사각형 4105" width="393" height="298" transform="translate(0 2166)" fill="url(#linear-gradient)"/>
    <rect id="사각형_4106" data-name="사각형 4106" width="393" height="82" transform="translate(0 2757)" fill="url(#linear-gradient-2)"/>
    <g id="그룹_6574" data-name="그룹 6574" transform="translate(21992 13122.595)">
      <g transform="matrix(1, 0, 0, 1, -21992, -10956.59)" filter="url(#패스_14794)">
        <g id="패스_14794-2" data-name="패스 14794" transform="translate(115 215.59)" fill="#151a1f">
          <path d="M 82 163 C 76.50360107421875 163 71.01095581054688 162.4463348388672 65.67462158203125 161.3543548583984 C 60.47441482543945 160.2902221679688 55.35933303833008 158.7024383544922 50.47145843505859 156.6350250244141 C 45.67208480834961 154.6050567626953 41.04302215576172 152.0924835205078 36.71283340454102 149.1670684814453 C 32.42351913452148 146.2692718505859 28.3900203704834 142.9413146972656 24.7243537902832 139.2756500244141 C 21.05868721008301 135.6099853515625 17.7307300567627 131.5764770507812 14.83293724060059 127.2871704101562 C 11.90752124786377 122.9569778442383 9.394937515258789 118.3279190063477 7.364979267120361 113.5285415649414 C 5.297583103179932 108.6406631469727 3.709770917892456 103.5255813598633 2.6456458568573 98.32539367675781 C 1.553666710853577 92.98905944824219 1 87.49639892578125 1 82 C 1 76.50360107421875 1.553666710853577 71.01095581054688 2.6456458568573 65.67462158203125 C 3.709770917892456 60.47441482543945 5.297583103179932 55.35933303833008 7.364979267120361 50.47145843505859 C 9.394937515258789 45.67208480834961 11.90752124786377 41.04302215576172 14.83293724060059 36.71283340454102 C 17.7307300567627 32.42351913452148 21.05868721008301 28.3900203704834 24.7243537902832 24.7243537902832 C 28.3900203704834 21.05868721008301 32.42351913452148 17.7307300567627 36.71283340454102 14.83293724060059 C 41.04302215576172 11.90752124786377 45.67208480834961 9.394937515258789 50.47145843505859 7.364979267120361 C 55.35933303833008 5.297583103179932 60.47441482543945 3.709770917892456 65.67462158203125 2.6456458568573 C 71.01095581054688 1.553666710853577 76.50360107421875 1 82 1 C 87.49639892578125 1 92.98905944824219 1.553666710853577 98.32539367675781 2.6456458568573 C 103.5255813598633 3.709770917892456 108.6406631469727 5.297583103179932 113.5285415649414 7.364979267120361 C 118.3279190063477 9.394937515258789 122.9569778442383 11.90752124786377 127.2871704101562 14.83293724060059 C 131.5764770507812 17.7307300567627 135.6099853515625 21.05868721008301 139.2756500244141 24.7243537902832 C 142.9413146972656 28.3900203704834 146.2692718505859 32.42351913452148 149.1670684814453 36.71283340454102 C 152.0924835205078 41.04302215576172 154.6050567626953 45.67208480834961 156.6350250244141 50.47145843505859 C 158.7024383544922 55.35933303833008 160.2902221679688 60.47441482543945 161.3543548583984 65.67462158203125 C 162.4463348388672 71.01095581054688 163 76.50360107421875 163 82 C 163 87.49639892578125 162.4463348388672 92.98905944824219 161.3543548583984 98.32539367675781 C 160.2902221679688 103.5255813598633 158.7024383544922 108.6406631469727 156.6350250244141 113.5285415649414 C 154.6050567626953 118.3279190063477 152.0924835205078 122.9569778442383 149.1670684814453 127.2871704101562 C 146.2692718505859 131.5764770507812 142.9413146972656 135.6099853515625 139.2756500244141 139.2756500244141 C 135.6099853515625 142.9413146972656 131.5764770507812 146.2692718505859 127.2871704101562 149.1670684814453 C 122.9569778442383 152.0924835205078 118.3279190063477 154.6050567626953 113.5285415649414 156.6350250244141 C 108.6406631469727 158.7024383544922 103.5255813598633 160.2902221679688 98.32539367675781 161.3543548583984 C 92.98905944824219 162.4463348388672 87.49639892578125 163 82 163 Z" stroke="none"/>
          <path d="M 82 2 C 76.57080078125 2 71.14558410644531 2.546844482421875 65.87508392333984 3.625350952148438 C 60.73956298828125 4.676239013671875 55.68808746337891 6.244277954101562 50.86100006103516 8.285980224609375 C 46.12110900878906 10.29078674316406 41.54932403564453 12.77227783203125 37.27262878417969 15.66156005859375 C 33.03607177734375 18.52371215820312 29.05210876464844 21.81080627441406 25.43145751953125 25.43145751953125 C 21.81080627441406 29.05210876464844 18.52371215820312 33.03607177734375 15.66156005859375 37.27262878417969 C 12.77227783203125 41.54932403564453 10.29078674316406 46.12110900878906 8.285980224609375 50.86100006103516 C 6.244277954101562 55.68808746337891 4.676239013671875 60.73956298828125 3.625350952148438 65.87508392333984 C 2.546844482421875 71.14558410644531 2 76.57080078125 2 82 C 2 87.42919921875 2.546844482421875 92.85441589355469 3.625350952148438 98.12491607666016 C 4.676239013671875 103.2604370117188 6.244277954101562 108.3119125366211 8.285980224609375 113.1389999389648 C 10.29078674316406 117.8788909912109 12.77227783203125 122.4506683349609 15.66156005859375 126.7273712158203 C 18.52371215820312 130.9639282226562 21.81080627441406 134.9478912353516 25.43145751953125 138.5685424804688 C 29.05210876464844 142.1891937255859 33.03607177734375 145.4762878417969 37.27262878417969 148.3384399414062 C 41.54932403564453 151.2277221679688 46.12110900878906 153.7092132568359 50.86100006103516 155.7140197753906 C 55.68808746337891 157.7557220458984 60.73956298828125 159.3237609863281 65.87508392333984 160.3746490478516 C 71.14558410644531 161.4531555175781 76.57080078125 162 82 162 C 87.42919921875 162 92.85441589355469 161.4531555175781 98.12491607666016 160.3746490478516 C 103.2604370117188 159.3237609863281 108.3119125366211 157.7557220458984 113.1389999389648 155.7140197753906 C 117.8788909912109 153.7092132568359 122.4506683349609 151.2277221679688 126.7273712158203 148.3384399414062 C 130.9639282226562 145.4762878417969 134.9478912353516 142.1891937255859 138.5685424804688 138.5685424804688 C 142.1891937255859 134.9478912353516 145.4762878417969 130.9639282226562 148.3384399414062 126.7273712158203 C 151.2277221679688 122.4506683349609 153.7092132568359 117.8788909912109 155.7140197753906 113.1389999389648 C 157.7557220458984 108.3119125366211 159.3237609863281 103.2604370117188 160.3746490478516 98.12491607666016 C 161.4531555175781 92.85441589355469 162 87.42919921875 162 82 C 162 76.57080078125 161.4531555175781 71.14558410644531 160.3746490478516 65.87508392333984 C 159.3237609863281 60.73956298828125 157.7557220458984 55.68808746337891 155.7140197753906 50.86100006103516 C 153.7092132568359 46.12110900878906 151.2277221679688 41.54932403564453 148.3384399414062 37.27262878417969 C 145.4762878417969 33.03607177734375 142.1891937255859 29.05210876464844 138.5685424804688 25.43145751953125 C 134.9478912353516 21.81080627441406 130.9639282226562 18.52371215820312 126.7273712158203 15.66156005859375 C 122.4506683349609 12.77227783203125 117.8788909912109 10.29078674316406 113.1389999389648 8.285980224609375 C 108.3119125366211 6.244277954101562 103.2604370117188 4.676239013671875 98.12491607666016 3.625350952148438 C 92.85441589355469 2.546844482421875 87.42919921875 2 82 2 M 82 0 C 127.287353515625 0 164 36.71265411376953 164 82 C 164 127.287353515625 127.287353515625 164 82 164 C 36.71265411376953 164 0 127.287353515625 0 82 C 0 36.71265411376953 36.71265411376953 0 82 0 Z" stroke="none" fill="#72c7f0"/>
        </g>
      </g>
      <g id="그룹_6573" data-name="그룹 6573" transform="translate(266.825 64.829)">
        <g id="그룹_6571" data-name="그룹 6571" transform="translate(-22131.824 -10731.828)">
          <rect id="사각형_4107" data-name="사각형 4107" width="14.42" height="14.42" transform="translate(0.007)" fill="#ffa727"/>
          <circle id="타원_217" data-name="타원 217" cx="6.365" cy="6.365" r="6.365" transform="translate(0.849 0.849)" fill="#ffff50"/>
          <path id="패스_14795" data-name="패스 14795" d="M14.428,14.428V0H14.35L0,14.35v.078Z" fill="#cfc"/>
          <path id="패스_14796" data-name="패스 14796" d="M.98,36.172H15.319V23.9A14.515,14.515,0,0,1,.98,36.172Z" transform="translate(-0.892 -21.745)" fill="#6cf"/>
        </g>
        <g id="그룹_6572" data-name="그룹 6572" transform="translate(-22112.293 -10731.828)">
          <path id="패스_14797" data-name="패스 14797" d="M11.213,14.876l-1.207-3.028H3.09L1.884,14.876H0L5.483,1.23H7.59l5.5,13.646H11.211ZM6.548,2.745l-2.966,7.59H9.494Z" transform="translate(0 -1.005)" fill="#72c7f0"/>
          <path id="패스_14798" data-name="패스 14798" d="M81.082,0c4.03,0,6.772,3.028,6.772,7.059s-2.742,7.059-6.772,7.059S74.31,11.089,74.31,7.059,77.032,0,81.082,0Zm0,1.513c-3.068,0-5.012,2.353-5.012,5.544S78.014,12.6,81.082,12.6s5.012-2.373,5.012-5.544S84.13,1.513,81.082,1.513Z" transform="translate(-60.746)" fill="#72c7f0"/>
          <path id="패스_14799" data-name="패스 14799" d="M170.968,14.876l-3.479-5.421h-2.722v5.421h-1.7V1.23h5.483a3.975,3.975,0,0,1,4.277,4.113,3.73,3.73,0,0,1-3.539,3.968l3.684,5.565h-2ZM168.349,2.745h-3.581V7.962h3.581a2.552,2.552,0,0,0,2.722-2.619,2.535,2.535,0,0,0-2.722-2.6Z" transform="translate(-133.304 -1.005)" fill="#72c7f0"/>
          <path id="패스_14800" data-name="패스 14800" d="M234.962,0c4.03,0,6.772,3.028,6.772,7.059s-2.742,7.059-6.772,7.059-6.772-3.028-6.772-7.059S230.912,0,234.962,0Zm0,1.513c-3.068,0-5.012,2.353-5.012,5.544s1.944,5.544,5.012,5.544,5.012-2.373,5.012-5.544-1.964-5.544-5.012-5.544Z" transform="translate(-186.537)" fill="#72c7f0"/>
          <path id="패스_14801" data-name="패스 14801" d="M316.291,14.876l-1.207-3.028h-6.916l-1.207,3.028H305.08L310.562,1.23h2.106l5.5,13.646h-1.882ZM311.626,2.745l-2.966,7.59h5.912Z" transform="translate(-249.392 -1.005)" fill="#72c7f0"/>
          <path id="패스_14802" data-name="패스 14802" d="M392.07,16.149V2.94h1.643V14.684h6.141v1.465Z" transform="translate(-316.154 -2.517)" fill="#72c7f0"/>
          <path id="패스_14803" data-name="패스 14803" d="M428.862,16.149l-1.168-2.929H421l-1.168,2.929H418.01L423.32,2.94h2.04l5.327,13.209h-1.822ZM424.347,4.4l-2.872,7.347H427.2L424.347,4.4Z" transform="translate(-333.36 -2.517)" fill="#72c7f0"/>
          <path id="패스_14804" data-name="패스 14804" d="M460.76,16.149V2.94h5.882c2.3,0,3.7,1.387,3.7,3.367a3,3,0,0,1-2.317,3.03,3.3,3.3,0,0,1,2.576,3.249c0,2.118-1.407,3.566-3.822,3.566h-6.02ZM462.4,8.66h3.96a2.053,2.053,0,0,0,2.279-2.118A2.066,2.066,0,0,0,466.363,4.4H462.4V8.664Zm0,6.023h4.04a2.184,2.184,0,0,0,2.454-2.276,2.242,2.242,0,0,0-2.454-2.276H462.4v4.555Z" transform="translate(-361.716 -2.517)" fill="#72c7f0"/>
          <path id="패스_14805" data-name="패스 14805" d="M496.386,12.646a5.585,5.585,0,0,0,4.158,1.882c2.357,0,3.111-1.266,3.111-2.276,0-1.586-1.6-2.02-3.347-2.495-2.118-.556-4.475-1.148-4.475-3.744,0-2.178,1.943-3.663,4.535-3.663a6.208,6.208,0,0,1,4.693,1.842l-.99,1.209a5.062,5.062,0,0,0-3.821-1.586c-1.586,0-2.714.852-2.714,2.1,0,1.327,1.525,1.724,3.209,2.178,2.158.576,4.616,1.249,4.616,4.02,0,1.923-1.306,3.882-4.872,3.882a6.544,6.544,0,0,1-5.071-2.1l.97-1.249Z" transform="translate(-384.707 -2.125)" fill="#72c7f0"/>
        </g>
      </g>
      <text id="포워더" transform="translate(-21729.4 -10528.5)" fill="#fff" font-size="18" font-family="Pretendard-Regular, Pretendard"><tspan x="-23.335" y="0">포워더</tspan></text>
      <text id="항공운송사" transform="translate(-21657.4 -10774.615)" fill="#fff" font-size="18" font-family="Pretendard-Regular, Pretendard"><tspan x="-38.892" y="0">항공운송사</tspan></text>
      <text id="수출입_기업" data-name="수출입 기업" transform="translate(-21832.4 -10482.615)" fill="#fff" font-size="18" font-family="Pretendard-Regular, Pretendard"><tspan x="-41.15" y="0">수출입 기업</tspan></text>
    </g>
  </g>
</svg>
