<svg xmlns="http://www.w3.org/2000/svg" xmlns:xlink="http://www.w3.org/1999/xlink" width="393" height="673" viewBox="0 0 393 673">
  <defs>
    <clipPath id="clip-path">
      <rect id="사각형_3989" data-name="사각형 3989" width="393" height="673" transform="translate(-20954 -11016)" fill="#fff" stroke="#707070" stroke-width="1"/>
    </clipPath>
    <clipPath id="clip-path-2">
      <rect id="사각형_3987" data-name="사각형 3987" width="762" height="556" transform="translate(-0.416 -0.491)" fill="#fff" stroke="#707070" stroke-width="1"/>
    </clipPath>
    <clipPath id="clip-path-3">
      <rect id="사각형_3988" data-name="사각형 3988" width="762" height="556" transform="translate(0 0.001)" fill="#fff" stroke="#707070" stroke-width="1"/>
    </clipPath>
  </defs>
  <g id="main_section3_obj5_m" transform="translate(20954 11016)" clip-path="url(#clip-path)">
    <g id="main_section3_obj3" transform="translate(-21225.85 -10781.016) rotate(-30)" clip-path="url(#clip-path-2)">
      <g id="그룹_6323" data-name="그룹 6323" transform="translate(477.254 124.553)">
        <path id="패스_14064" data-name="패스 14064" d="M4367.483,980.61,4341.537,950.9l101.582-17.909.086.486-100.72,17.757,25.371,29.056Z" transform="translate(-4147.42 -857.477)" fill="#72c7f0"/>
        <path id="패스_14065" data-name="패스 14065" d="M4343.564,567.8l-.417-.263,58.867-93.454.2.36,42.5,75.271-.43.243-42.3-74.911Z" transform="translate(-4148.765 -474.079)" fill="#72c7f0"/>
        <path id="패스_14066" data-name="패스 14066" d="M4025.84,1089.566l-31.006-42.654,57.966-5.85Zm-30.1-42.249,30.046,41.333,26.125-47Z" transform="translate(-3857.764 -947.769)" fill="#72c7f0"/>
        <path id="패스_14067" data-name="패스 14067" d="M4028.537,1338.6l-44.573-43.211,32.811,5.955-.088.486-31.214-5.665,43.408,42.081Z" transform="translate(-3848.683 -1160.251)" fill="#72c7f0"/>
        <path id="패스_14068" data-name="패스 14068" d="M3875.13,1111.76l-22.67-20.3,24.193-16.918Zm-21.877-20.254,21.427,19.188,1.439-35.178Z" transform="translate(-3738.817 -975.739)" fill="#72c7f0"/>
        <path id="패스_14069" data-name="패스 14069" d="M4463.819,1712.654l-34.337-83.532.457-.188,34.112,82.985,49.278-31.6.267.416Z" transform="translate(-4220.895 -1438.911)" fill="#72c7f0"/>
        <path id="패스_14070" data-name="패스 14070" d="M4299.1,1938.377l-84.247-65.191.126-.191,21.27-32.237Zm-83.583-65.3,81.612,63.152-60.885-94.566Z" transform="translate(-4041.58 -1615.882)" fill="#72c7f0"/>
        <path id="패스_14071" data-name="패스 14071" d="M3999.386,1601.74h-68.443l53.586-47.911Zm-67.151-.494h66.481l-14.431-46.537Z" transform="translate(-3804.386 -1376.165)" fill="#72c7f0"/>
        <path id="패스_14072" data-name="패스 14072" d="M3448.164,914.512l-29.042-27.531.056-.152,22.943-62.464.078,1.158ZM3419.7,886.846l27.89,26.439-5.8-86.571Z" transform="translate(-3376.782 -766.727)" fill="#72c7f0"/>
        <path id="패스_14073" data-name="패스 14073" d="M3185.039,1232.106l-.214-.251-23.024-27.028,43.107-3.031Zm-22.228-26.855,22.176,26.033,18.962-28.926Z" transform="translate(-3161.802 -1082.056)" fill="#72c7f0"/>
      </g>
      <g id="그룹_6325" data-name="그룹 6325" transform="translate(1.806 53.876)">
        <g id="그룹_6324" data-name="그룹 6324" transform="translate(0 0)">
          <path id="패스_14074" data-name="패스 14074" d="M348.318,823.158l-.17-.188-43.815-48.5.366-.331,43.645,48.307,37.639-35.962.341.357Z" transform="translate(-299.059 -654.094)" fill="#72c7f0"/>
          <path id="패스_14075" data-name="패스 14075" d="M314.935,1620.6l-42.658-75.545.43-.243,42.35,75,76.353-71.5.337.36Z" transform="translate(-272.277 -1297.951)" fill="#72c7f0"/>
          <path id="패스_14076" data-name="패스 14076" d="M531.7,1638.881l-.082-.487,105.951-17.877-29.613-53.5.432-.239,29.951,54.11-.344.058Z" transform="translate(-488.948 -1316.306)" fill="#72c7f0"/>
          <path id="패스_14077" data-name="패스 14077" d="M561.68,121.518,504.035,44.545l84.7,65.544ZM506.613,47.164l55.231,73.748,25.925-10.949Z" transform="translate(-465.902 -44.545)" fill="#72c7f0"/>
          <path id="패스_14078" data-name="패스 14078" d="M1175.993,1480.935l9.509-82.075,39.536,47.377Zm9.867-80.876-9.249,79.834,47.706-33.751Z" transform="translate(-1027.294 -1176.018)" fill="#72c7f0"/>
          <path id="패스_14079" data-name="패스 14079" d="M1579.766,1163.838l9.56-55.349L1618.343,1136Zm9.89-54.357-9.2,53.248,37.112-26.786Z" transform="translate(-1364.629 -933.426)" fill="#72c7f0"/>
          <path id="패스_14080" data-name="패스 14080" d="M393.371,1403.88l-119.834-3.58.015-.493,118.339,3.535-40.044-31.556.306-.388Z" transform="translate(-273.331 -1153.075)" fill="#72c7f0"/>
          <path id="패스_14081" data-name="패스 14081" d="M1267,697.157l-73.9-44.34.254-.423,72.542,43.526-27.151-59.831.449-.2Z" transform="translate(-1041.585 -538.584)" fill="#72c7f0"/>
          <path id="패스_14082" data-name="패스 14082" d="M1016.357,971.718l-32.669-5.929.088-.486,31.356,5.691-39.456-48.545.383-.311Z" transform="translate(-859.939 -777.736)" fill="#72c7f0"/>
        </g>
      </g>
    </g>
    <g id="main_section3_obj3-2" data-name="main_section3_obj3" transform="matrix(-0.174, 0.985, -0.985, -0.174, -20417.564, -11058.456)" clip-path="url(#clip-path-3)">
      <g id="그룹_6326" data-name="그룹 6326" transform="translate(477.67 108.461)">
        <path id="패스_14083" data-name="패스 14083" d="M25.946,0,0,29.715,101.582,47.624l.086-.486L.947,29.381,26.317.325Z" transform="translate(194.117 199.362)" fill="#72c7f0"/>
        <path id="패스_14084" data-name="패스 14084" d="M.417,0,0,.263,58.868,93.717l.2-.36,42.5-75.271-.43-.243-42.3,74.911Z" transform="translate(194.382 228.779)" fill="#72c7f0"/>
        <path id="패스_14085" data-name="패스 14085" d="M31.006,0,0,42.654,57.966,48.5ZM.9,42.249,30.951.916l26.125,47Z" transform="translate(137.07 180.699)" fill="#72c7f0"/>
        <path id="패스_14086" data-name="패스 14086" d="M44.573,0,0,43.211l32.811-5.955-.088-.486L1.509,42.435,44.917.354Z" transform="translate(135.281 144.144)" fill="#72c7f0"/>
        <path id="패스_14087" data-name="패스 14087" d="M22.67,0,0,20.3,24.193,37.22ZM.793,20.254,22.219,1.066l1.439,35.178Z" transform="translate(113.643 186.474)" fill="#72c7f0"/>
        <path id="패스_14088" data-name="패스 14088" d="M34.338,0,0,83.532l.457.188L34.569.735l49.278,31.6.267-.416Z" transform="translate(208.587 48.754)" fill="#72c7f0"/>
        <path id="패스_14089" data-name="패스 14089" d="M84.246,0,0,65.191l.126.191L21.4,97.619ZM.664,65.3,82.275,2.149,21.391,96.715Z" transform="translate(173.272 0)" fill="#72c7f0"/>
        <path id="패스_14090" data-name="패스 14090" d="M68.443,0H0L53.586,47.911ZM1.292.494H67.773L53.342,47.03Z" transform="translate(126.556 96.92)" fill="#72c7f0"/>
        <path id="패스_14091" data-name="패스 14091" d="M29.042,0,0,27.531l.056.152L23,90.148l.078-1.158ZM.575,27.666,28.465,1.227,22.661,87.8Z" transform="translate(42.34 174.711)" fill="#72c7f0"/>
        <path id="패스_14092" data-name="패스 14092" d="M23.237,0l-.214.251L0,27.279,43.107,30.31ZM1.01,26.855,23.186.822,42.148,29.748Z" transform="translate(0 172.446)" fill="#72c7f0"/>
      </g>
      <g id="그룹_6328" data-name="그룹 6328" transform="translate(2.222 178.989)">
        <g id="그룹_6327" data-name="그룹 6327" transform="translate(0 0)">
          <path id="패스_14093" data-name="패스 14093" d="M43.985,0l-.17.188L0,48.684l.366.331L44.011.708,81.65,36.67l.341-.357Z" transform="translate(5.274 153.58)" fill="#72c7f0"/>
          <path id="패스_14094" data-name="패스 14094" d="M42.658,0,0,75.545l.43.243,42.35-75,76.353,71.5.337-.36Z" transform="translate(0 0)" fill="#72c7f0"/>
          <path id="패스_14095" data-name="패스 14095" d="M.082,0,0,.487,105.951,18.364l-29.614,53.5.432.239,29.951-54.11-.344-.058Z" transform="translate(42.672 0.069)" fill="#72c7f0"/>
          <path id="패스_14096" data-name="패스 14096" d="M57.645,0,0,76.973,84.7,11.428ZM2.578,74.353,57.809.605,83.734,11.555Z" transform="translate(38.134 245.672)" fill="#72c7f0"/>
          <path id="패스_14097" data-name="패스 14097" d="M0,0,9.509,82.075,49.045,34.7ZM9.867,80.876.617,1.042,48.323,34.793Z" transform="translate(148.699 17.727)" fill="#72c7f0"/>
          <path id="패스_14098" data-name="패스 14098" d="M0,0,9.56,55.349,38.577,27.842ZM9.89,54.357.692,1.108,37.8,27.894Z" transform="translate(215.137 92.232)" fill="#72c7f0"/>
          <path id="패스_14099" data-name="패스 14099" d="M119.834,0,0,3.58l.015.493L118.353.538,78.309,32.094l.306.388Z" transform="translate(0.207 71.84)" fill="#72c7f0"/>
          <path id="패스_14100" data-name="패스 14100" d="M73.9,0,0,44.34l.254.423L72.8,1.238,45.645,61.069l.449.2Z" transform="translate(151.514 164.072)" fill="#72c7f0"/>
          <path id="패스_14101" data-name="패스 14101" d="M40.68,0,8.012,5.929l.088.486L39.456.724,0,49.269l.383.311Z" transform="translate(115.738 128.663)" fill="#72c7f0"/>
        </g>
      </g>
    </g>
  </g>
</svg>
