<svg xmlns="http://www.w3.org/2000/svg" xmlns:xlink="http://www.w3.org/1999/xlink" width="1920" height="1400" viewBox="0 0 1920 1400">
  <defs>
    <clipPath id="clip-path">
      <rect id="사각형_3658" data-name="사각형 3658" width="1920" height="1400" transform="translate(-16840 -14966)" fill="#fff" stroke="#707070" stroke-width="1"/>
    </clipPath>
    <clipPath id="clip-path-2">
      <rect id="사각형_1491" data-name="사각형 1491" width="2074.91" height="1023.92" fill="#72c7f0"/>
    </clipPath>
    <clipPath id="clip-path-3">
      <rect id="사각형_1490" data-name="사각형 1490" width="2074.912" height="1023.918" fill="#72c7f0"/>
    </clipPath>
    <clipPath id="clip-path-4">
      <rect id="사각형_1470" data-name="사각형 1470" width="2070.76" height="872.869" fill="#72c7f0"/>
    </clipPath>
    <clipPath id="clip-path-5">
      <rect id="사각형_1454" data-name="사각형 1454" width="19.943" height="19.943" fill="#72c7f0"/>
    </clipPath>
    <clipPath id="clip-path-6">
      <rect id="사각형_1455" data-name="사각형 1455" width="19.942" height="19.943" fill="#72c7f0"/>
    </clipPath>
    <clipPath id="clip-path-10">
      <rect id="사각형_1459" data-name="사각형 1459" width="19.943" height="19.942" fill="#72c7f0"/>
    </clipPath>
    <clipPath id="clip-path-20">
      <rect id="사각형_1469" data-name="사각형 1469" width="19.942" height="19.942" fill="#72c7f0"/>
    </clipPath>
    <clipPath id="clip-path-21">
      <rect id="사각형_1471" data-name="사각형 1471" width="34.512" height="34.515" fill="#72c7f0"/>
    </clipPath>
    <clipPath id="clip-path-22">
      <rect id="사각형_1472" data-name="사각형 1472" width="34.511" height="34.515" fill="#72c7f0"/>
    </clipPath>
    <clipPath id="clip-path-23">
      <rect id="사각형_1473" data-name="사각형 1473" width="34.512" height="34.512" fill="#72c7f0"/>
    </clipPath>
    <clipPath id="clip-path-24">
      <rect id="사각형_1474" data-name="사각형 1474" width="34.511" height="34.512" fill="#72c7f0"/>
    </clipPath>
    <clipPath id="clip-path-27">
      <rect id="사각형_1477" data-name="사각형 1477" width="34.513" height="34.515" fill="#72c7f0"/>
    </clipPath>
    <clipPath id="clip-path-38">
      <rect id="사각형_1488" data-name="사각형 1488" width="1946.162" height="685.662" fill="#72c7f0"/>
    </clipPath>
    <clipPath id="clip-path-39">
      <rect id="사각형_1489" data-name="사각형 1489" width="1976.461" height="971.215" fill="#72c7f0"/>
    </clipPath>
  </defs>
  <g id="main_section3_obj1" transform="translate(16840 14966)" clip-path="url(#clip-path)">
    <g id="그룹_541" data-name="그룹 541" transform="translate(-16948.455 -14848.589)" clip-path="url(#clip-path-2)">
      <g id="그룹_539" data-name="그룹 539" transform="translate(0 0.002)" clip-path="url(#clip-path-3)">
        <g id="그룹_481" data-name="그룹 481" transform="translate(0 13.695)" opacity="0.4">
          <g id="그룹_480" data-name="그룹 480">
            <g id="그룹_479" data-name="그룹 479" clip-path="url(#clip-path-4)">
              <path id="패스_1070" data-name="패스 1070" d="M327.443,1980.856l-1.375-.1L6.541,1957.347l1.866-.66,197.375-69.868.179.139ZM10.55,1956.809l314.2,23.018-119.121-92.074Z" transform="translate(-3.826 -1117.394)" fill="#72c7f0"/>
              <path id="패스_1071" data-name="패스 1071" d="M606.844,1762.328l-.77-.31L705,1516.137l-218.7,153.321-.477-.68,220.99-154.927Z" transform="translate(-284.187 -899.226)" fill="#72c7f0"/>
              <path id="패스_1072" data-name="패스 1072" d="M486.254,1665.416l-.728-.4,86.2-157.836.254.006,133.768,3.49-.022.83-133.514-3.484Z" transform="translate(-284.009 -895.325)" fill="#72c7f0"/>
              <rect id="사각형_1453" data-name="사각형 1453" width="363.232" height="0.83" transform="translate(4.438 839.333) rotate(-38.749)" fill="#72c7f0"/>
              <path id="패스_1073" data-name="패스 1073" d="M561.231,1363.845,561,1363.6l-93.7-99.559.943-.012,269.69-3.51ZM469.2,1264.851l92.183,97.944,173.418-101.4Z" transform="translate(-273.349 -751.041)" fill="#72c7f0"/>
              <path id="패스_1074" data-name="패스 1074" d="M1144.724,1392.372l-130.006-27.335,42.028-105.612Zm-128.87-27.944,127.061,26.716-85.986-129.936Z" transform="translate(-593.561 -750.399)" fill="#72c7f0"/>
              <path id="패스_1075" data-name="패스 1075" d="M772.144,1800.059l1.505-1.464,228.38-221.97.261.481,58.383,107.424Zm229.678-222.076L775.734,1797.727,1059.5,1684.106Z" transform="translate(-451.667 -935.946)" fill="#72c7f0"/>
              <path id="패스_1076" data-name="패스 1076" d="M9.493,1538.634l.37-2.229,61.147-368.627,130.063,42.183-.259.445Zm62.178-369.769L11.052,1534.313l188.786-323.88Z" transform="translate(-5.553 -696.79)" fill="#72c7f0"/>
              <path id="패스_1077" data-name="패스 1077" d="M287.761,1110.063l-.64-.528,92.158-111.741-220.826,70.525-.253-.791,223.515-71.385Z" transform="translate(-92.539 -596.393)" fill="#72c7f0"/>
              <path id="패스_1078" data-name="패스 1078" d="M864.348,1105.837l-.151-.095-177.99-111.17,266.917,88.183ZM692.5,997.527l171.98,107.416,85.7-22.283Z" transform="translate(-401.397 -595.473)" fill="#72c7f0"/>
              <path id="패스_1079" data-name="패스 1079" d="M955.46,950.452,917.179,769.486l-223.452,94.6-.323-.764,224.379-95,.1.493,38.385,181.459Z" transform="translate(-405.607 -463.132)" fill="#72c7f0"/>
              <path id="패스_1080" data-name="패스 1080" d="M158.391,902.619l-.555-.618L368.4,713.02l12.3,118.292-.826.086L367.742,714.725Z" transform="translate(-92.327 -430.779)" fill="#72c7f0"/>
              <path id="패스_1081" data-name="패스 1081" d="M898.815,656.441l-1.06-.1L659.749,633.477,825.8,575.182Zm-235.234-23.43,233.192,22.4-71.221-79.263Z" transform="translate(-385.921 -350.15)" fill="#72c7f0"/>
              <path id="패스_1082" data-name="패스 1082" d="M550.542,499.471l-81.2-58.254L588.2,345.3l-.291,1.192Zm-79.833-58.293,79.318,56.9,36.785-150.59Z" transform="translate(-274.541 -215.682)" fill="#72c7f0"/>
              <path id="패스_1083" data-name="패스 1083" d="M141.248,820.111,129.43,724.387l.132-.142,143.454-154.08ZM130.3,724.669l11.446,92.714L269.372,575.3Z" transform="translate(-75.71 -347.215)" fill="#72c7f0"/>
              <path id="패스_1084" data-name="패스 1084" d="M1004.806,457.779,876.187,440.511l-.086-.065-129.724-97Zm-128.3-18.062,122.631,16.464-246.4-109.005Z" transform="translate(-436.594 -214.599)" fill="#72c7f0"/>
              <path id="패스_1085" data-name="패스 1085" d="M454.347,352.448l-11.1-158.916,129.181,63.714-.367.744L444.175,194.916l11,157.474Z" transform="translate(-259.277 -126.903)" fill="#72c7f0"/>
              <path id="패스_1086" data-name="패스 1086" d="M294.351,353.34,169.307,297.83l.472-.428L283.19,194.459l.558.614L170.808,297.588l123.88,54.993Z" transform="translate(-99.036 -127.446)" fill="#72c7f0"/>
              <path id="패스_1087" data-name="패스 1087" d="M573.09,169.224l-.793-.245,38.718-125.4L444.306,106.1l-.291-.777L612.306,42.209Z" transform="translate(-259.727 -38.387)" fill="#72c7f0"/>
              <path id="패스_1088" data-name="패스 1088" d="M916.1,192.138,753.913,170.107l.112-.822L914.111,191.03,792.616,43.752l.64-.528Z" transform="translate(-441.003 -38.981)" fill="#72c7f0"/>
              <path id="패스_1089" data-name="패스 1089" d="M1231.7,490.031l-92.532-91.012,168,34.411ZM1141.756,400.4l90.022,88.544,73.421-55.066Z" transform="translate(-666.361 -247.103)" fill="#72c7f0"/>
              <path id="패스_1090" data-name="패스 1090" d="M1346.989,679.917H1231.132l54.382-64.43Zm-114.069-.83h112.13l-59.5-62.358Z" transform="translate(-720.153 -373.727)" fill="#72c7f0"/>
              <path id="패스_1091" data-name="패스 1091" d="M1323.152,952.054l.7-1.689L1399.591,768.6l107.6,18.815Zm76.95-182.522L1325.325,949l180.039-161.057Z" transform="translate(-773.98 -463.291)" fill="#72c7f0"/>
              <path id="패스_1092" data-name="패스 1092" d="M1613.443,618.89l-91.848-136.905L1507.767,600.1l-.825-.1,14.089-120.344,93.1,138.772Z" transform="translate(-881.488 -294.272)" fill="#72c7f0"/>
              <path id="패스_1093" data-name="패스 1093" d="M1325.354,977.677l-.075-.827L1657.6,946.64,1507.25,814.877l.547-.624L1659.6,947.291l-.964.088Z" transform="translate(-775.224 -489.995)" fill="#72c7f0"/>
              <path id="패스_1094" data-name="패스 1094" d="M1491.956,1261.459l-.24-.14L1324.866,1164.2l.418-.717,166.609,96.981,166.214-127.251.5.659Z" transform="translate(-774.983 -676.57)" fill="#72c7f0"/>
              <path id="패스_1095" data-name="패스 1095" d="M1562.565,1536.349l-241.313-39.03,168.709-57.5.181.24Zm-237.895-39.318,235.992,38.169-71-94.4Z" transform="translate(-772.868 -855.924)" fill="#72c7f0"/>
              <path id="패스_1096" data-name="패스 1096" d="M1898.179,1357.14l95.338-224.546.4.222,135.914,75.044-.584.377Zm95.742-223.375L1900,1354.981l228.219-147.065Z" transform="translate(-1110.343 -676.209)" fill="#72c7f0"/>
              <path id="패스_1097" data-name="패스 1097" d="M1900.354,1462.476l-.076-.827,203.9-18.649,25.673-129.191.814.162-25.793,129.8-.309.028Z" transform="translate(-1111.571 -782.212)" fill="#72c7f0"/>
              <path id="패스_1098" data-name="패스 1098" d="M2536.673,1321.26l-85.031-41.458,79.532-24.114.043.512Zm-82.766-41.277,81.818,39.891-5.292-63.093Z" transform="translate(-1434.092 -748.213)" fill="#72c7f0"/>
              <path id="패스_1099" data-name="패스 1099" d="M2263.992,1175.262h-.83V1077.8l-134.821,23.159-.14-.818,135.791-23.327Z" transform="translate(-1244.894 -643.583)" fill="#72c7f0"/>
              <path id="패스_1100" data-name="패스 1100" d="M2529.986,1151.381l-.17-.162-79.374-75.573,160.357,53.312ZM2453.7,1077.6l76.514,72.851,77.735-21.571Z" transform="translate(-1433.39 -642.897)" fill="#72c7f0"/>
              <path id="패스_1101" data-name="패스 1101" d="M2652.81,1289.735l.748-.874,74.378-86.914,20.681,71.327Zm74.757-86.08-72.631,84.872,92.625-15.913Z" transform="translate(-1551.765 -716.777)" fill="#72c7f0"/>
              <path id="패스_1102" data-name="패스 1102" d="M2458.831,1540.843l-68.188-41.671.455-.37,110.246-89.705Zm-66.754-41.767,66.288,40.509,41.327-128.075Z" transform="translate(-1398.41 -837.95)" fill="#72c7f0"/>
              <path id="패스_1103" data-name="패스 1103" d="M2555.307,1541.932l-.309-.771,110.3-44.2-68.958-85.062.644-.523,69.668,85.937-.522.21Z" transform="translate(-1494.55 -839.282)" fill="#72c7f0"/>
              <path id="패스_1104" data-name="패스 1104" d="M2820.745,1475.094,2846,1371.968l108.6,5.051-.949.695Zm25.9-102.265-24.55,100.248,130.117-95.338Z" transform="translate(-1649.999 -816.232)" fill="#72c7f0"/>
              <path id="패스_1105" data-name="패스 1105" d="M2909.228,1503.993l-87.1-22.089.2-.8,86.386,21.907,45.109-118.359.776.3Z" transform="translate(-1650.806 -823.649)" fill="#72c7f0"/>
              <path id="패스_1106" data-name="패스 1106" d="M3026.293,1503.647l-.374-.741,113.6-57.42-66.379-60.607.559-.613,67.267,61.418-.537.271Z" transform="translate(-1770.016 -823.425)" fill="#72c7f0"/>
              <path id="패스_1107" data-name="패스 1107" d="M3207.279,1350.043l-.79-.255,41.156-127.173-107.365,66.641-.438-.705,109.291-67.835Z" transform="translate(-1836.656 -727.756)" fill="#72c7f0"/>
              <path id="패스_1108" data-name="패스 1108" d="M3301.257,1350.984l-.551-.621,131.709-116.845-89.978-10.682.1-.824,91.814,10.9-.691.614Z" transform="translate(-1930.753 -728.514)" fill="#72c7f0"/>
              <path id="패스_1109" data-name="패스 1109" d="M3026.354,1589.586l-.08-.826,190.732-18.538-76.74-38.37.372-.743,79.319,39.659Z" transform="translate(-1770.223 -909.322)" fill="#72c7f0"/>
              <path id="패스_1110" data-name="패스 1110" d="M3115.349,1692.4l-.216-.115-89.235-47.73.392-.732,89.02,47.616,102.727-66.275.45.7Z" transform="translate(-1770.004 -964.339)" fill="#72c7f0"/>
              <path id="패스_1111" data-name="패스 1111" d="M3487.524,1404.4l.374-1.076,54.822-157.769.343,1.328,27.887,107.8-.268.16Zm55.079-155.981-53.547,154.1,80.934-48.234Z" transform="translate(-2040.032 -742.285)" fill="#72c7f0"/>
              <path id="패스_1112" data-name="패스 1112" d="M3648.425,1356.2l-.61-.562,87.841-95.265-115.386-11.539.083-.826,117.041,11.7Z" transform="translate(-2117.682 -743.722)" fill="#72c7f0"/>
              <path id="패스_1113" data-name="패스 1113" d="M3735.757,1120.255,3716.8,1010.649l-96.554,98.205-.592-.582,97.689-99.358,19.23,111.2Z" transform="translate(-2117.324 -603.862)" fill="#72c7f0"/>
              <path id="패스_1114" data-name="패스 1114" d="M3492.282,1105.464l-.828-.051,6.162-99.822-96.361,89.36-.565-.609,97.882-90.771Z" transform="translate(-1989.239 -600.738)" fill="#72c7f0"/>
              <path id="패스_1115" data-name="패스 1115" d="M3720.989,958.334l-.092,0-94.688-2.162,181.771-35.921Zm-87.175-2.821,87.011,1.986,79.859-34.963Z" transform="translate(-2121.156 -551.998)" fill="#72c7f0"/>
              <path id="패스_1116" data-name="패스 1116" d="M3898.406,1069.379l65.124-148.735,48.317,97.056ZM3963.578,922.6l-63.542,145.12,110.685-50.423Z" transform="translate(-2280.379 -552.229)" fill="#72c7f0"/>
              <path id="패스_1117" data-name="패스 1117" d="M4114.83,854.23l-.1-.005-65.692-3.457,192.2-51.729.271.782Zm-60.535-4.017,60.384,3.178,121.168-52.043Z" transform="translate(-2368.492 -481.096)" fill="#72c7f0"/>
              <path id="패스_1118" data-name="패스 1118" d="M4168.858,947.772l15.575-93.871.819.136-15.139,91.241L4311.134,799.31l.6.577Z" transform="translate(-2438.58 -481.254)" fill="#72c7f0"/>
              <path id="패스_1119" data-name="패스 1119" d="M4055.265,730.42l-.516-.65L4227.1,593.216l17.985,85.742-.812.17L4226.568,594.7Z" transform="translate(-2371.832 -360.699)" fill="#72c7f0"/>
              <path id="패스_1120" data-name="패스 1120" d="M4487.259,679.9l-.281-.781L4640.3,624.04l-171.1-29.2.14-.818,174.217,29.734Z" transform="translate(-2614.267 -361.169)" fill="#72c7f0"/>
              <path id="패스_1121" data-name="패스 1121" d="M4488.146,842.32l9.64-121.132.828.066-9.452,118.766,163.548-174.7.606.567Z" transform="translate(-2625.348 -402.877)" fill="#72c7f0"/>
              <path id="패스_1122" data-name="패스 1122" d="M4236.475,1154.982l-.28-.163-68.593-39.978,134.788-27.465ZM4169.9,1115.22l66.433,38.718,63.58-65.21Z" transform="translate(-2437.845 -649.759)" fill="#72c7f0"/>
              <path id="패스_1123" data-name="패스 1123" d="M3945.9,1402.307l-.229-.694-46.652-142.041.534-.035,180.709-11.685-.653.751Zm-45.758-141.976,46.09,140.328,132.1-151.851Z" transform="translate(-2280.737 -743.63)" fill="#72c7f0"/>
              <path id="패스_1124" data-name="패스 1124" d="M3658.177,1594.538l.084-.625,11.688-87.245.477.162,136.163,46.086Zm12.461-86.76-11.47,85.62,144.612-40.557Z" transform="translate(-2139.856 -895.024)" fill="#72c7f0"/>
              <path id="패스_1125" data-name="패스 1125" d="M4077.751,1462.908l-66.057-60.622.561-.611,65.1,59.741L4144.81,1248.7l.791.251Z" transform="translate(-2346.647 -744.127)" fill="#72c7f0"/>
              <path id="패스_1126" data-name="패스 1126" d="M4284.191,1462.632H4170.37v-.83h112.795l-45.548-212.833.812-.173Z" transform="translate(-2439.465 -744.182)" fill="#72c7f0"/>
              <path id="패스_1127" data-name="패스 1127" d="M4379.261,1461.967l-.729-.4,98.1-180.478-143.486-32.253.183-.81,144.558,32.494-.262.483Z" transform="translate(-2534.683 -743.733)" fill="#72c7f0"/>
              <path id="패스_1128" data-name="패스 1128" d="M4534.488,1785.82l-.514-.388-92.8-70.229,116.854-33.628-.154.684ZM4443,1715.542l90.966,68.839,22.946-101.619Z" transform="translate(-2597.87 -997.337)" fill="#72c7f0"/>
              <path id="패스_1129" data-name="패스 1129" d="M4696.395,1474.892l-.1-.886-17.088-148.374,124.523,35.638-.469.5Zm-16.222-148.12,16.843,146.254,105.172-111.334Z" transform="translate(-2737.108 -789.127)" fill="#72c7f0"/>
              <g id="그룹_433" data-name="그룹 433" transform="translate(453.054 501.379)" opacity="0.3">
                <g id="그룹_432" data-name="그룹 432">
                  <g id="그룹_431" data-name="그룹 431" clip-path="url(#clip-path-5)">
                    <path id="패스_1130" data-name="패스 1130" d="M1091.573,1250.976a9.971,9.971,0,1,1,9.971,9.971,9.971,9.971,0,0,1-9.971-9.971" transform="translate(-1091.572 -1241.003)" fill="#72c7f0"/>
                  </g>
                </g>
              </g>
              <path id="패스_1131" data-name="패스 1131" d="M1100.153,1255.995a6.41,6.41,0,1,1,6.41,6.41,6.41,6.41,0,0,1-6.41-6.41" transform="translate(-643.536 -744.643)" fill="#72c7f0"/>
              <g id="그룹_436" data-name="그룹 436" transform="translate(265.869 273.102)" opacity="0.3">
                <g id="그룹_435" data-name="그룹 435">
                  <g id="그룹_434" data-name="그룹 434" clip-path="url(#clip-path-6)">
                    <path id="패스_1132" data-name="패스 1132" d="M640.573,700.976a9.971,9.971,0,1,1,9.971,9.971,9.971,9.971,0,0,1-9.971-9.971" transform="translate(-640.573 -691.003)" fill="#72c7f0"/>
                  </g>
                </g>
              </g>
              <path id="패스_1133" data-name="패스 1133" d="M649.153,705.995a6.41,6.41,0,1,1,6.41,6.41,6.41,6.41,0,0,1-6.41-6.41" transform="translate(-379.723 -422.92)" fill="#72c7f0"/>
              <g id="그룹_439" data-name="그룹 439" transform="translate(555.571 233.257)" opacity="0.3">
                <g id="그룹_438" data-name="그룹 438">
                  <g id="그룹_437" data-name="그룹 437" clip-path="url(#clip-path-5)">
                    <path id="패스_1134" data-name="패스 1134" d="M1338.573,604.976a9.971,9.971,0,1,1,9.971,9.971,9.971,9.971,0,0,1-9.971-9.971" transform="translate(-1338.572 -595.003)" fill="#72c7f0"/>
                  </g>
                </g>
              </g>
              <path id="패스_1135" data-name="패스 1135" d="M1347.153,609.995a6.41,6.41,0,1,1,6.41,6.41,6.41,6.41,0,0,1-6.41-6.41" transform="translate(-788.019 -366.765)" fill="#72c7f0"/>
              <g id="그룹_442" data-name="그룹 442" transform="translate(502.03 295.93)" opacity="0.3">
                <g id="그룹_441" data-name="그룹 441">
                  <g id="그룹_440" data-name="그룹 440" clip-path="url(#clip-path-5)">
                    <path id="패스_1136" data-name="패스 1136" d="M1209.573,755.976a9.971,9.971,0,1,1,9.971,9.971,9.971,9.971,0,0,1-9.971-9.971" transform="translate(-1209.572 -746.003)" fill="#72c7f0"/>
                  </g>
                </g>
              </g>
              <path id="패스_1137" data-name="패스 1137" d="M1218.153,761a6.41,6.41,0,1,1,6.41,6.41,6.41,6.41,0,0,1-6.41-6.41" transform="translate(-712.56 -455.092)" fill="#72c7f0"/>
              <g id="그룹_445" data-name="그룹 445" transform="translate(1010.464 423.764)" opacity="0.3">
                <g id="그룹_444" data-name="그룹 444">
                  <g id="그룹_443" data-name="그룹 443" clip-path="url(#clip-path-5)">
                    <path id="패스_1138" data-name="패스 1138" d="M2434.573,1063.976a9.971,9.971,0,1,1,9.971,9.971,9.971,9.971,0,0,1-9.971-9.971" transform="translate(-2434.572 -1054.003)" fill="#72c7f0"/>
                  </g>
                </g>
              </g>
              <path id="패스_1139" data-name="패스 1139" d="M2443.153,1068.995a6.41,6.41,0,1,1,6.41,6.41,6.41,6.41,0,0,1-6.41-6.41" transform="translate(-1429.126 -635.257)" fill="#72c7f0"/>
              <g id="그룹_448" data-name="그룹 448" transform="translate(1247.872 669.89)" opacity="0.3">
                <g id="그룹_447" data-name="그룹 447">
                  <g id="그룹_446" data-name="그룹 446" clip-path="url(#clip-path-10)">
                    <path id="패스_1140" data-name="패스 1140" d="M3006.573,1656.976a9.971,9.971,0,1,1,9.971,9.971,9.971,9.971,0,0,1-9.971-9.971" transform="translate(-3006.572 -1647.005)" fill="#72c7f0"/>
                  </g>
                </g>
              </g>
              <path id="패스_1141" data-name="패스 1141" d="M3015.153,1661.995a6.41,6.41,0,1,1,6.41,6.41,6.41,6.41,0,0,1-6.41-6.41" transform="translate(-1763.718 -982.134)" fill="#72c7f0"/>
              <g id="그룹_451" data-name="그룹 451" transform="translate(1438.379 650.798)" opacity="0.3">
                <g id="그룹_450" data-name="그룹 450">
                  <g id="그룹_449" data-name="그룹 449" clip-path="url(#clip-path-10)">
                    <path id="패스_1142" data-name="패스 1142" d="M3465.573,1610.976a9.971,9.971,0,1,1,9.971,9.971,9.971,9.971,0,0,1-9.971-9.971" transform="translate(-3465.572 -1601.005)" fill="#72c7f0"/>
                  </g>
                </g>
              </g>
              <path id="패스_1143" data-name="패스 1143" d="M3474.153,1615.995a6.41,6.41,0,1,1,6.41,6.41,6.41,6.41,0,0,1-6.41-6.41" transform="translate(-2032.211 -955.226)" fill="#72c7f0"/>
              <g id="그룹_454" data-name="그룹 454" transform="translate(1655.45 647.893)" opacity="0.3">
                <g id="그룹_453" data-name="그룹 453">
                  <g id="그룹_452" data-name="그룹 452" clip-path="url(#clip-path-10)">
                    <path id="패스_1144" data-name="패스 1144" d="M3988.573,1603.976a9.971,9.971,0,1,1,9.971,9.971,9.972,9.972,0,0,1-9.971-9.971" transform="translate(-3988.572 -1594.005)" fill="#72c7f0"/>
                  </g>
                </g>
              </g>
              <path id="패스_1145" data-name="패스 1145" d="M3997.153,1608.995a6.41,6.41,0,1,1,6.41,6.41,6.41,6.41,0,0,1-6.41-6.41" transform="translate(-2338.141 -951.131)" fill="#72c7f0"/>
              <g id="그룹_457" data-name="그룹 457" transform="translate(1949.719 674.041)" opacity="0.3">
                <g id="그룹_456" data-name="그룹 456">
                  <g id="그룹_455" data-name="그룹 455" clip-path="url(#clip-path-10)">
                    <path id="패스_1146" data-name="패스 1146" d="M4697.573,1666.976a9.971,9.971,0,1,1,9.971,9.971,9.971,9.971,0,0,1-9.971-9.971" transform="translate(-4697.572 -1657.005)" fill="#72c7f0"/>
                  </g>
                </g>
              </g>
              <path id="패스_1147" data-name="패스 1147" d="M4706.153,1671.995a6.41,6.41,0,1,1,6.41,6.41,6.41,6.41,0,0,1-6.41-6.41" transform="translate(-2752.872 -987.983)" fill="#72c7f0"/>
              <g id="그룹_460" data-name="그룹 460" transform="translate(1788.68 494.738)" opacity="0.3">
                <g id="그룹_459" data-name="그룹 459">
                  <g id="그룹_458" data-name="그룹 458" clip-path="url(#clip-path-5)">
                    <path id="패스_1148" data-name="패스 1148" d="M4309.573,1234.976a9.971,9.971,0,1,1,9.971,9.971,9.971,9.971,0,0,1-9.971-9.971" transform="translate(-4309.572 -1225.003)" fill="#72c7f0"/>
                  </g>
                </g>
              </g>
              <path id="패스_1149" data-name="패스 1149" d="M4318.152,1239.995a6.41,6.41,0,1,1,6.411,6.41,6.41,6.41,0,0,1-6.411-6.41" transform="translate(-2525.91 -735.284)" fill="#72c7f0"/>
              <g id="그룹_463" data-name="그룹 463" transform="translate(1673.297 359.432)" opacity="0.3">
                <g id="그룹_462" data-name="그룹 462">
                  <g id="그룹_461" data-name="그룹 461" clip-path="url(#clip-path-5)">
                    <path id="패스_1150" data-name="패스 1150" d="M4031.573,908.976a9.971,9.971,0,1,1,9.971,9.971,9.972,9.972,0,0,1-9.971-9.971" transform="translate(-4031.571 -899.003)" fill="#72c7f0"/>
                  </g>
                </g>
              </g>
              <path id="패스_1151" data-name="패스 1151" d="M4040.153,913.995a6.41,6.41,0,1,1,6.41,6.41,6.41,6.41,0,0,1-6.41-6.41" transform="translate(-2363.294 -544.59)" fill="#72c7f0"/>
              <g id="그룹_466" data-name="그룹 466" transform="translate(706.649 574.842)" opacity="0.3">
                <g id="그룹_465" data-name="그룹 465">
                  <g id="그룹_464" data-name="그룹 464" clip-path="url(#clip-path-5)">
                    <path id="패스_1152" data-name="패스 1152" d="M1702.573,1427.976a9.971,9.971,0,1,1,9.971,9.971,9.971,9.971,0,0,1-9.971-9.971" transform="translate(-1702.572 -1418.003)" fill="#72c7f0"/>
                  </g>
                </g>
              </g>
              <path id="패스_1153" data-name="패스 1153" d="M1711.153,1432.995a6.41,6.41,0,1,1,6.41,6.41,6.41,6.41,0,0,1-6.41-6.41" transform="translate(-1000.942 -848.18)" fill="#72c7f0"/>
              <g id="그룹_469" data-name="그룹 469" transform="translate(306.959 120.779)" opacity="0.3">
                <g id="그룹_468" data-name="그룹 468">
                  <g id="그룹_467" data-name="그룹 467" clip-path="url(#clip-path-6)">
                    <path id="패스_1154" data-name="패스 1154" d="M739.573,333.976a9.971,9.971,0,1,1,9.971,9.971,9.971,9.971,0,0,1-9.971-9.971" transform="translate(-739.573 -324.003)" fill="#72c7f0"/>
                  </g>
                </g>
              </g>
              <path id="패스_1155" data-name="패스 1155" d="M748.153,338.995a6.41,6.41,0,1,1,6.41,6.41,6.41,6.41,0,0,1-6.41-6.41" transform="translate(-437.633 -208.243)" fill="#72c7f0"/>
              <g id="그룹_472" data-name="그룹 472" transform="translate(631.11 176.396)" opacity="0.3">
                <g id="그룹_471" data-name="그룹 471">
                  <g id="그룹_470" data-name="그룹 470" clip-path="url(#clip-path-5)">
                    <path id="패스_1156" data-name="패스 1156" d="M1520.573,467.976a9.971,9.971,0,1,1,9.971,9.971,9.971,9.971,0,0,1-9.971-9.971" transform="translate(-1520.572 -458.003)" fill="#72c7f0"/>
                  </g>
                </g>
              </g>
              <path id="패스_1157" data-name="패스 1157" d="M1529.153,472.995a6.41,6.41,0,1,1,6.41,6.41,6.41,6.41,0,0,1-6.41-6.41" transform="translate(-894.48 -286.626)" fill="#72c7f0"/>
              <g id="그룹_475" data-name="그룹 475" transform="translate(540.215 631.291)" opacity="0.3">
                <g id="그룹_474" data-name="그룹 474">
                  <g id="그룹_473" data-name="그룹 473" clip-path="url(#clip-path-10)">
                    <path id="패스_1158" data-name="패스 1158" d="M1301.573,1563.976a9.971,9.971,0,1,1,9.971,9.971,9.971,9.971,0,0,1-9.971-9.971" transform="translate(-1301.572 -1554.005)" fill="#72c7f0"/>
                  </g>
                </g>
              </g>
              <path id="패스_1159" data-name="패스 1159" d="M1310.153,1568.995a6.41,6.41,0,1,1,6.41,6.41,6.41,6.41,0,0,1-6.41-6.41" transform="translate(-766.376 -927.733)" fill="#72c7f0"/>
              <g id="그룹_478" data-name="그룹 478" transform="translate(312.354 852.927)" opacity="0.3">
                <g id="그룹_477" data-name="그룹 477">
                  <g id="그룹_476" data-name="그룹 476" clip-path="url(#clip-path-20)">
                    <path id="패스_1160" data-name="패스 1160" d="M752.573,2097.976a9.971,9.971,0,1,1,9.971,9.971,9.971,9.971,0,0,1-9.971-9.971" transform="translate(-752.573 -2088.005)" fill="#72c7f0"/>
                  </g>
                </g>
              </g>
              <path id="패스_1161" data-name="패스 1161" d="M761.153,2103a6.41,6.41,0,1,1,6.41,6.41,6.41,6.41,0,0,1-6.41-6.41" transform="translate(-445.238 -1240.097)" fill="#72c7f0"/>
              <path id="패스_1162" data-name="패스 1162" d="M682,1507.82a4.815,4.815,0,1,1,4.815,4.815A4.816,4.816,0,0,1,682,1507.82" transform="translate(-398.937 -892.881)" fill="#72c7f0"/>
              <path id="패스_1163" data-name="패스 1163" d="M459,1262.82a4.815,4.815,0,1,1,4.815,4.815A4.815,4.815,0,0,1,459,1262.82" transform="translate(-268.493 -749.569)" fill="#72c7f0"/>
              <path id="패스_1164" data-name="패스 1164" d="M147,1158.82a4.815,4.815,0,1,1,4.815,4.815A4.815,4.815,0,0,1,147,1158.82" transform="translate(-85.988 -688.734)" fill="#72c7f0"/>
              <path id="패스_1165" data-name="패스 1165" d="M119,934.82a4.815,4.815,0,1,1,4.815,4.815A4.815,4.815,0,0,1,119,934.82" transform="translate(-69.609 -557.704)" fill="#72c7f0"/>
              <path id="패스_1166" data-name="패스 1166" d="M459,569.82a4.815,4.815,0,1,1,4.815,4.815A4.815,4.815,0,0,1,459,569.82" transform="translate(-268.493 -344.197)" fill="#72c7f0"/>
              <path id="패스_1167" data-name="패스 1167" d="M163,435.82a4.815,4.815,0,1,1,4.815,4.815A4.815,4.815,0,0,1,163,435.82" transform="translate(-95.347 -265.814)" fill="#72c7f0"/>
              <path id="패스_1168" data-name="패스 1168" d="M433,188.82a4.815,4.815,0,1,1,4.815,4.815A4.815,4.815,0,0,1,433,188.82" transform="translate(-253.284 -121.331)" fill="#72c7f0"/>
              <path id="패스_1169" data-name="패스 1169" d="M836,37.82a4.815,4.815,0,1,1,4.815,4.815A4.815,4.815,0,0,1,836,37.82" transform="translate(-489.02 -33.003)" fill="#72c7f0"/>
              <path id="패스_1170" data-name="패스 1170" d="M1131,393.82a4.815,4.815,0,1,1,4.815,4.815A4.815,4.815,0,0,1,1131,393.82" transform="translate(-661.58 -241.246)" fill="#72c7f0"/>
              <path id="패스_1171" data-name="패스 1171" d="M1051,569.82a4.815,4.815,0,1,1,4.815,4.815A4.815,4.815,0,0,1,1051,569.82" transform="translate(-614.784 -344.197)" fill="#72c7f0"/>
              <path id="패스_1172" data-name="패스 1172" d="M1314,1199.82a4.815,4.815,0,1,1,4.815,4.815,4.815,4.815,0,0,1-4.815-4.815" transform="translate(-768.626 -712.717)" fill="#72c7f0"/>
              <path id="패스_1173" data-name="패스 1173" d="M1496,768.82a4.815,4.815,0,1,1,4.815,4.815A4.815,4.815,0,0,1,1496,768.82" transform="translate(-875.088 -460.603)" fill="#72c7f0"/>
              <path id="패스_1174" data-name="패스 1174" d="M1753,807.82a4.815,4.815,0,1,1,4.815,4.815A4.815,4.815,0,0,1,1753,807.82" transform="translate(-1025.42 -483.416)" fill="#72c7f0"/>
              <path id="패스_1175" data-name="패스 1175" d="M2117,1126.82a4.815,4.815,0,1,1,4.815,4.815,4.816,4.816,0,0,1-4.815-4.815" transform="translate(-1238.342 -670.015)" fill="#72c7f0"/>
              <path id="패스_1176" data-name="패스 1176" d="M2381,1619.82a4.815,4.815,0,1,1,4.815,4.815,4.815,4.815,0,0,1-4.815-4.815" transform="translate(-1392.77 -958.396)" fill="#72c7f0"/>
              <path id="패스_1177" data-name="패스 1177" d="M2546,1717.82a4.815,4.815,0,1,1,4.815,4.815,4.815,4.815,0,0,1-4.815-4.815" transform="translate(-1489.287 -1015.721)" fill="#72c7f0"/>
              <path id="패스_1178" data-name="패스 1178" d="M2811,1610.82a4.815,4.815,0,1,1,4.815,4.815,4.815,4.815,0,0,1-4.815-4.815" transform="translate(-1644.299 -953.132)" fill="#72c7f0"/>
              <path id="패스_1179" data-name="패스 1179" d="M2643,1407.82a4.815,4.815,0,1,1,4.815,4.815,4.815,4.815,0,0,1-4.815-4.815" transform="translate(-1546.027 -834.386)" fill="#72c7f0"/>
              <path id="패스_1180" data-name="패스 1180" d="M2632,1250.82a4.815,4.815,0,1,1,4.815,4.815,4.816,4.816,0,0,1-4.815-4.815" transform="translate(-1539.592 -742.549)" fill="#72c7f0"/>
              <path id="패스_1181" data-name="패스 1181" d="M2822,1196.82a4.815,4.815,0,1,1,4.815,4.815,4.815,4.815,0,0,1-4.815-4.815" transform="translate(-1650.733 -710.962)" fill="#72c7f0"/>
              <path id="패스_1182" data-name="패스 1182" d="M3129,1376.82a4.815,4.815,0,1,1,4.815,4.815,4.815,4.815,0,0,1-4.815-4.815" transform="translate(-1830.313 -816.253)" fill="#72c7f0"/>
              <path id="패스_1183" data-name="패스 1183" d="M3229,1778.82a4.815,4.815,0,1,1,4.815,4.815,4.815,4.815,0,0,1-4.815-4.815" transform="translate(-1888.809 -1051.403)" fill="#72c7f0"/>
              <path id="패스_1184" data-name="패스 1184" d="M3293,1524.82a4.815,4.815,0,1,1,4.815,4.815,4.815,4.815,0,0,1-4.815-4.815" transform="translate(-1926.246 -902.826)" fill="#72c7f0"/>
              <path id="패스_1185" data-name="패스 1185" d="M3676,1500.82a4.815,4.815,0,1,1,4.815,4.815,4.816,4.816,0,0,1-4.815-4.815" transform="translate(-2150.282 -888.787)" fill="#72c7f0"/>
              <path id="패스_1186" data-name="패스 1186" d="M4161,1755.82a4.815,4.815,0,1,1,4.815,4.815,4.815,4.815,0,0,1-4.815-4.815" transform="translate(-2433.984 -1037.95)" fill="#72c7f0"/>
              <path id="패스_1187" data-name="패스 1187" d="M4435,1755.82a4.816,4.816,0,1,1,4.815,4.815,4.815,4.815,0,0,1-4.815-4.815" transform="translate(-2594.26 -1037.95)" fill="#72c7f0"/>
              <path id="패스_1188" data-name="패스 1188" d="M4669,1318.82a4.816,4.816,0,1,1,4.815,4.815,4.815,4.815,0,0,1-4.815-4.815" transform="translate(-2731.139 -782.326)" fill="#72c7f0"/>
              <path id="패스_1189" data-name="패스 1189" d="M4478,1082.82a4.815,4.815,0,1,1,4.815,4.815,4.815,4.815,0,0,1-4.815-4.815" transform="translate(-2619.413 -644.277)" fill="#72c7f0"/>
              <path id="패스_1190" data-name="패스 1190" d="M4161,1146.82a4.815,4.815,0,1,1,4.815,4.815,4.815,4.815,0,0,1-4.815-4.815" transform="translate(-2433.984 -681.714)" fill="#72c7f0"/>
              <path id="패스_1191" data-name="패스 1191" d="M4197,923.82a4.815,4.815,0,1,1,4.815,4.815A4.815,4.815,0,0,1,4197,923.82" transform="translate(-2455.042 -551.27)" fill="#72c7f0"/>
              <path id="패스_1192" data-name="패스 1192" d="M4458,587.82a4.815,4.815,0,1,1,4.815,4.815A4.815,4.815,0,0,1,4458,587.82" transform="translate(-2607.714 -354.726)" fill="#72c7f0"/>
              <path id="패스_1193" data-name="패스 1193" d="M4880,654.82a4.815,4.815,0,1,1,4.815,4.815A4.815,4.815,0,0,1,4880,654.82" transform="translate(-2854.564 -393.918)" fill="#72c7f0"/>
              <path id="패스_1194" data-name="패스 1194" d="M4501,792.82a4.815,4.815,0,1,1,4.815,4.815A4.815,4.815,0,0,1,4501,792.82" transform="translate(-2632.867 -474.641)" fill="#72c7f0"/>
              <path id="패스_1195" data-name="패스 1195" d="M3843,1003.82a4.815,4.815,0,1,1,4.815,4.815,4.815,4.815,0,0,1-4.815-4.815" transform="translate(-2247.969 -598.066)" fill="#72c7f0"/>
              <path id="패스_1196" data-name="패스 1196" d="M3624,1003.82a4.816,4.816,0,1,1,4.815,4.815,4.815,4.815,0,0,1-4.815-4.815" transform="translate(-2119.864 -598.066)" fill="#72c7f0"/>
              <path id="패스_1197" data-name="패스 1197" d="M3889,1269.82a4.815,4.815,0,1,1,4.815,4.815,4.815,4.815,0,0,1-4.815-4.815" transform="translate(-2274.877 -753.663)" fill="#72c7f0"/>
              <path id="패스_1198" data-name="패스 1198" d="M3612,1246.82a4.815,4.815,0,1,1,4.815,4.815,4.815,4.815,0,0,1-4.815-4.815" transform="translate(-2112.845 -740.209)" fill="#72c7f0"/>
              <path id="패스_1199" data-name="패스 1199" d="M4966,1403.82a4.816,4.816,0,1,1,4.815,4.815,4.815,4.815,0,0,1-4.815-4.815" transform="translate(-2904.87 -832.047)" fill="#72c7f0"/>
              <path id="패스_1200" data-name="패스 1200" d="M4654,1923.82a4.815,4.815,0,1,1,4.815,4.815,4.815,4.815,0,0,1-4.815-4.815" transform="translate(-2722.365 -1136.222)" fill="#72c7f0"/>
              <path id="패스_1201" data-name="패스 1201" d="M3648,1709.82a4.815,4.815,0,1,1,4.815,4.815,4.815,4.815,0,0,1-4.815-4.815" transform="translate(-2133.903 -1011.042)" fill="#72c7f0"/>
              <path id="패스_1202" data-name="패스 1202" d="M3390,1215.82a4.815,4.815,0,1,1,4.815,4.815,4.815,4.815,0,0,1-4.815-4.815" transform="translate(-1982.986 -722.076)" fill="#72c7f0"/>
              <path id="패스_1203" data-name="패스 1203" d="M2443,1306.82a4.815,4.815,0,1,1,4.815,4.815,4.816,4.816,0,0,1-4.815-4.815" transform="translate(-1429.037 -775.307)" fill="#72c7f0"/>
              <path id="패스_1204" data-name="패스 1204" d="M1888,1663.82a4.815,4.815,0,1,1,4.815,4.815,4.815,4.815,0,0,1-4.815-4.815" transform="translate(-1104.389 -984.134)" fill="#72c7f0"/>
              <path id="패스_1205" data-name="패스 1205" d="M475,1880.82a4.815,4.815,0,1,1,4.815,4.815A4.815,4.815,0,0,1,475,1880.82" transform="translate(-277.852 -1111.068)" fill="#72c7f0"/>
              <path id="패스_1206" data-name="패스 1206" d="M1005,1507.82a4.815,4.815,0,1,1,4.815,4.815,4.816,4.816,0,0,1-4.815-4.815" transform="translate(-587.876 -892.881)" fill="#72c7f0"/>
              <path id="패스_1207" data-name="패스 1207" d="M677,991.82a4.815,4.815,0,1,1,4.815,4.815A4.815,4.815,0,0,1,677,991.82" transform="translate(-396.012 -591.047)" fill="#72c7f0"/>
              <path id="패스_1208" data-name="패스 1208" d="M1454,1826.82a4.815,4.815,0,1,1,4.815,4.815,4.815,4.815,0,0,1-4.815-4.815" transform="translate(-850.52 -1079.481)" fill="#72c7f0"/>
              <path id="패스_1209" data-name="패스 1209" d="M0,2048.82a4.815,4.815,0,1,1,4.815,4.815A4.815,4.815,0,0,1,0,2048.82" transform="translate(0 -1209.341)" fill="#72c7f0"/>
            </g>
          </g>
        </g>
        <g id="그룹_484" data-name="그룹 484" transform="translate(219.762 425.838)" opacity="0.3">
          <g id="그룹_483" data-name="그룹 483">
            <g id="그룹_482" data-name="그룹 482" clip-path="url(#clip-path-21)">
              <path id="패스_1210" data-name="패스 1210" d="M529.486,1043.261a17.256,17.256,0,1,1,17.256,17.256,17.256,17.256,0,0,1-17.256-17.256" transform="translate(-529.486 -1026.003)" fill="#72c7f0"/>
            </g>
          </g>
        </g>
        <path id="패스_1211" data-name="패스 1211" d="M544.335,1051.946a11.093,11.093,0,1,1,11.093,11.093,11.093,11.093,0,0,1-11.093-11.093" transform="translate(-318.41 -608.851)" fill="#72c7f0"/>
        <g id="그룹_487" data-name="그룹 487" transform="translate(554.293 521.299)" opacity="0.3">
          <g id="그룹_486" data-name="그룹 486">
            <g id="그룹_485" data-name="그룹 485" clip-path="url(#clip-path-22)">
              <path id="패스_1212" data-name="패스 1212" d="M1335.486,1273.261a17.256,17.256,0,1,1,17.256,17.256,17.256,17.256,0,0,1-17.256-17.256" transform="translate(-1335.488 -1256.003)" fill="#72c7f0"/>
            </g>
          </g>
        </g>
        <path id="패스_1213" data-name="패스 1213" d="M1350.335,1281.946a11.093,11.093,0,1,1,11.093,11.093,11.093,11.093,0,0,1-11.093-11.093" transform="translate(-789.881 -743.39)" fill="#72c7f0"/>
        <g id="그룹_490" data-name="그룹 490" transform="translate(207.311 813.495)" opacity="0.3">
          <g id="그룹_489" data-name="그룹 489">
            <g id="그룹_488" data-name="그룹 488" clip-path="url(#clip-path-23)">
              <path id="패스_1214" data-name="패스 1214" d="M499.486,1977.261a17.256,17.256,0,1,1,17.256,17.256,17.256,17.256,0,0,1-17.256-17.256" transform="translate(-499.486 -1960.005)" fill="#72c7f0"/>
            </g>
          </g>
        </g>
        <path id="패스_1215" data-name="패스 1215" d="M514.335,1985.947a11.093,11.093,0,1,1,11.093,11.093,11.093,11.093,0,0,1-11.093-11.093" transform="translate(-300.861 -1155.195)" fill="#72c7f0"/>
        <g id="그룹_493" data-name="그룹 493" transform="translate(1750.463 628.383)" opacity="0.3">
          <g id="그룹_492" data-name="그룹 492">
            <g id="그룹_491" data-name="그룹 491" clip-path="url(#clip-path-24)">
              <path id="패스_1216" data-name="패스 1216" d="M4217.486,1531.261a17.256,17.256,0,1,1,17.256,17.256,17.256,17.256,0,0,1-17.256-17.256" transform="translate(-4217.487 -1514.005)" fill="#72c7f0"/>
            </g>
          </g>
        </g>
        <path id="패스_1217" data-name="패스 1217" d="M4232.334,1539.946a11.093,11.093,0,1,1,11.094,11.093,11.093,11.093,0,0,1-11.094-11.093" transform="translate(-2475.71 -894.307)" fill="#72c7f0"/>
        <g id="그룹_496" data-name="그룹 496" transform="translate(1018.317 470.663)" opacity="0.3">
          <g id="그룹_495" data-name="그룹 495">
            <g id="그룹_494" data-name="그룹 494" clip-path="url(#clip-path-22)">
              <path id="패스_1218" data-name="패스 1218" d="M2453.486,1151.261a17.256,17.256,0,1,1,17.256,17.256,17.256,17.256,0,0,1-17.256-17.256" transform="translate(-2453.488 -1134.003)" fill="#72c7f0"/>
            </g>
          </g>
        </g>
        <path id="패스_1219" data-name="패스 1219" d="M2468.335,1159.946a11.093,11.093,0,1,1,11.093,11.093,11.093,11.093,0,0,1-11.093-11.093" transform="translate(-1443.856 -672.025)" fill="#72c7f0"/>
        <g id="그룹_499" data-name="그룹 499" transform="translate(1907.766 859.15)" opacity="0.3">
          <g id="그룹_498" data-name="그룹 498">
            <g id="그룹_497" data-name="그룹 497" clip-path="url(#clip-path-24)">
              <path id="패스_1220" data-name="패스 1220" d="M4596.485,2087.261a17.256,17.256,0,1,1,17.256,17.256,17.256,17.256,0,0,1-17.256-17.256" transform="translate(-4596.487 -2070.005)" fill="#72c7f0"/>
            </g>
          </g>
        </g>
        <path id="패스_1221" data-name="패스 1221" d="M4611.334,2095.947a11.093,11.093,0,1,1,11.093,11.093,11.093,11.093,0,0,1-11.093-11.093" transform="translate(-2697.407 -1219.54)" fill="#72c7f0"/>
        <g id="그룹_502" data-name="그룹 502" transform="translate(407.364 163.942)" opacity="0.3">
          <g id="그룹_501" data-name="그룹 501">
            <g id="그룹_500" data-name="그룹 500" clip-path="url(#clip-path-27)">
              <path id="패스_1222" data-name="패스 1222" d="M981.486,412.261a17.256,17.256,0,1,1,17.256,17.256,17.256,17.256,0,0,1-17.256-17.256" transform="translate(-981.486 -395.003)" fill="#72c7f0"/>
            </g>
          </g>
        </g>
        <path id="패스_1223" data-name="패스 1223" d="M996.335,420.946a11.093,11.093,0,1,1,11.093,11.093,11.093,11.093,0,0,1-11.093-11.093" transform="translate(-582.808 -239.746)" fill="#72c7f0"/>
        <g id="그룹_505" data-name="그룹 505" transform="translate(1474.04 549.937)" opacity="0.3">
          <g id="그룹_504" data-name="그룹 504">
            <g id="그룹_503" data-name="그룹 503" clip-path="url(#clip-path-22)">
              <path id="패스_1224" data-name="패스 1224" d="M3551.486,1342.261a17.256,17.256,0,1,1,17.256,17.256,17.256,17.256,0,0,1-17.256-17.256" transform="translate(-3551.488 -1325.003)" fill="#72c7f0"/>
            </g>
          </g>
        </g>
        <path id="패스_1225" data-name="패스 1225" d="M3566.335,1350.946a11.093,11.093,0,1,1,11.093,11.093,11.093,11.093,0,0,1-11.093-11.093" transform="translate(-2086.133 -783.751)" fill="#72c7f0"/>
        <g id="그룹_508" data-name="그룹 508" transform="translate(1785.742 414.631)" opacity="0.3">
          <g id="그룹_507" data-name="그룹 507">
            <g id="그룹_506" data-name="그룹 506" clip-path="url(#clip-path-22)">
              <path id="패스_1226" data-name="패스 1226" d="M4302.485,1016.261a17.256,17.256,0,1,1,17.257,17.256,17.257,17.257,0,0,1-17.257-17.256" transform="translate(-4302.487 -999.003)" fill="#72c7f0"/>
            </g>
          </g>
        </g>
        <path id="패스_1227" data-name="패스 1227" d="M4317.334,1024.946a11.093,11.093,0,1,1,11.093,11.093,11.093,11.093,0,0,1-11.093-11.093" transform="translate(-2525.431 -593.057)" fill="#72c7f0"/>
        <g id="그룹_511" data-name="그룹 511" transform="translate(116.451 310.869)" opacity="0.3">
          <g id="그룹_510" data-name="그룹 510">
            <g id="그룹_509" data-name="그룹 509" clip-path="url(#clip-path-6)">
              <path id="패스_1228" data-name="패스 1228" d="M280.573,758.976a9.971,9.971,0,1,1,9.971,9.971,9.971,9.971,0,0,1-9.971-9.971" transform="translate(-280.573 -749.003)" fill="#72c7f0"/>
            </g>
          </g>
        </g>
        <path id="패스_1229" data-name="패스 1229" d="M289.153,763.995a6.41,6.41,0,1,1,6.41,6.41,6.41,6.41,0,0,1-6.41-6.41" transform="translate(-169.14 -443.153)" fill="#72c7f0"/>
        <g id="그룹_514" data-name="그룹 514" transform="translate(394.949 371.881)" opacity="0.3">
          <g id="그룹_513" data-name="그룹 513">
            <g id="그룹_512" data-name="그룹 512" clip-path="url(#clip-path-6)">
              <path id="패스_1230" data-name="패스 1230" d="M951.573,905.976a9.971,9.971,0,1,1,9.971,9.971,9.971,9.971,0,0,1-9.971-9.971" transform="translate(-951.573 -896.003)" fill="#72c7f0"/>
            </g>
          </g>
        </g>
        <path id="패스_1231" data-name="패스 1231" d="M960.153,910.995a6.41,6.41,0,1,1,6.41,6.41,6.41,6.41,0,0,1-6.41-6.41" transform="translate(-561.643 -529.14)" fill="#72c7f0"/>
        <g id="그룹_517" data-name="그룹 517" transform="translate(575.079 415.461)" opacity="0.3">
          <g id="그룹_516" data-name="그룹 516">
            <g id="그룹_515" data-name="그룹 515" clip-path="url(#clip-path-5)">
              <path id="패스_1232" data-name="패스 1232" d="M1385.573,1010.976a9.971,9.971,0,1,1,9.971,9.971,9.971,9.971,0,0,1-9.971-9.971" transform="translate(-1385.572 -1001.003)" fill="#72c7f0"/>
            </g>
          </g>
        </g>
        <path id="패스_1233" data-name="패스 1233" d="M1394.153,1016a6.41,6.41,0,1,1,6.41,6.41,6.41,6.41,0,0,1-6.41-6.41" transform="translate(-815.512 -590.56)" fill="#72c7f0"/>
        <g id="그룹_520" data-name="그룹 520" transform="translate(1135.394 581.481)" opacity="0.3">
          <g id="그룹_519" data-name="그룹 519">
            <g id="그룹_518" data-name="그룹 518" clip-path="url(#clip-path-5)">
              <path id="패스_1234" data-name="패스 1234" d="M2735.573,1410.976a9.971,9.971,0,1,1,9.971,9.971,9.971,9.971,0,0,1-9.971-9.971" transform="translate(-2735.572 -1401.003)" fill="#72c7f0"/>
            </g>
          </g>
        </g>
        <path id="패스_1235" data-name="패스 1235" d="M2744.153,1415.995a6.41,6.41,0,1,1,6.41,6.41,6.41,6.41,0,0,1-6.41-6.41" transform="translate(-1605.196 -824.541)" fill="#72c7f0"/>
        <g id="그룹_523" data-name="그룹 523" transform="translate(1235.836 736.711)" opacity="0.3">
          <g id="그룹_522" data-name="그룹 522">
            <g id="그룹_521" data-name="그룹 521" clip-path="url(#clip-path-10)">
              <path id="패스_1236" data-name="패스 1236" d="M2977.573,1784.976a9.971,9.971,0,1,1,9.971,9.971,9.971,9.971,0,0,1-9.971-9.971" transform="translate(-2977.572 -1775.005)" fill="#72c7f0"/>
            </g>
          </g>
        </g>
        <path id="패스_1237" data-name="패스 1237" d="M2986.153,1789.995a6.41,6.41,0,1,1,6.41,6.41,6.41,6.41,0,0,1-6.41-6.41" transform="translate(-1746.755 -1043.313)" fill="#72c7f0"/>
        <g id="그룹_526" data-name="그룹 526" transform="translate(1622.661 754.143)" opacity="0.3">
          <g id="그룹_525" data-name="그룹 525">
            <g id="그룹_524" data-name="그룹 524" clip-path="url(#clip-path-10)">
              <path id="패스_1238" data-name="패스 1238" d="M3909.573,1826.976a9.971,9.971,0,1,1,9.971,9.971,9.971,9.971,0,0,1-9.971-9.971" transform="translate(-3909.572 -1817.005)" fill="#72c7f0"/>
            </g>
          </g>
        </g>
        <path id="패스_1239" data-name="패스 1239" d="M3918.153,1831.995a6.41,6.41,0,1,1,6.41,6.41,6.41,6.41,0,0,1-6.41-6.41" transform="translate(-2291.93 -1067.881)" fill="#72c7f0"/>
        <g id="그룹_529" data-name="그룹 529" transform="translate(600.397 688.98)" opacity="0.3">
          <g id="그룹_528" data-name="그룹 528">
            <g id="그룹_527" data-name="그룹 527" clip-path="url(#clip-path-10)">
              <path id="패스_1240" data-name="패스 1240" d="M1446.573,1669.976a9.971,9.971,0,1,1,9.971,9.971,9.971,9.971,0,0,1-9.971-9.971" transform="translate(-1446.572 -1660.005)" fill="#72c7f0"/>
            </g>
          </g>
        </g>
        <path id="패스_1241" data-name="패스 1241" d="M1455.153,1675a6.41,6.41,0,1,1,6.41,6.41,6.41,6.41,0,0,1-6.41-6.41" transform="translate(-851.194 -976.043)" fill="#72c7f0"/>
        <g id="그룹_532" data-name="그룹 532" transform="translate(1747.59 246.122)" opacity="0.3">
          <g id="그룹_531" data-name="그룹 531">
            <g id="그룹_530" data-name="그룹 530" clip-path="url(#clip-path-5)">
              <path id="패스_1242" data-name="패스 1242" d="M4210.573,602.976a9.971,9.971,0,1,1,9.972,9.971,9.971,9.971,0,0,1-9.972-9.971" transform="translate(-4210.571 -593.003)" fill="#72c7f0"/>
            </g>
          </g>
        </g>
        <path id="패스_1243" data-name="패스 1243" d="M4219.153,607.995a6.41,6.41,0,1,1,6.41,6.41,6.41,6.41,0,0,1-6.41-6.41" transform="translate(-2468 -351.9)" fill="#72c7f0"/>
        <path id="패스_1244" data-name="패스 1244" d="M789,2176.82a4.815,4.815,0,1,1,4.815,4.815A4.815,4.815,0,0,1,789,2176.82" transform="translate(-461.527 -1270.52)" fill="#72c7f0"/>
        <path id="패스_1245" data-name="패스 1245" d="M261,1536.82a4.815,4.815,0,1,1,4.815,4.815A4.815,4.815,0,0,1,261,1536.82" transform="translate(-152.672 -896.151)" fill="#72c7f0"/>
        <path id="패스_1246" data-name="패스 1246" d="M417,1184.82a4.815,4.815,0,1,1,4.815,4.815A4.815,4.815,0,0,1,417,1184.82" transform="translate(-243.925 -690.248)" fill="#72c7f0"/>
        <path id="패스_1247" data-name="패스 1247" d="M789,841.82a4.815,4.815,0,1,1,4.815,4.815A4.815,4.815,0,0,1,789,841.82" transform="translate(-461.527 -489.609)" fill="#72c7f0"/>
        <path id="패스_1248" data-name="패스 1248" d="M541,379.82a4.815,4.815,0,1,1,4.815,4.815A4.815,4.815,0,0,1,541,379.82" transform="translate(-316.459 -219.362)" fill="#72c7f0"/>
        <path id="패스_1249" data-name="패스 1249" d="M1012,1176.82a4.815,4.815,0,1,1,4.815,4.815,4.815,4.815,0,0,1-4.815-4.815" transform="translate(-591.971 -685.568)" fill="#72c7f0"/>
        <path id="패스_1250" data-name="패스 1250" d="M1459,625.82a4.815,4.815,0,1,1,4.815,4.815A4.815,4.815,0,0,1,1459,625.82" transform="translate(-853.444 -363.26)" fill="#72c7f0"/>
        <path id="패스_1251" data-name="패스 1251" d="M1626,995.82a4.815,4.815,0,1,1,4.815,4.815A4.815,4.815,0,0,1,1626,995.82" transform="translate(-951.131 -579.692)" fill="#72c7f0"/>
        <path id="패스_1252" data-name="패스 1252" d="M1917,1090.82a4.815,4.815,0,1,1,4.815,4.815,4.815,4.815,0,0,1-4.815-4.815" transform="translate(-1121.352 -635.262)" fill="#72c7f0"/>
        <path id="패스_1253" data-name="패스 1253" d="M2526,1341.82a4.815,4.815,0,1,1,4.815,4.815,4.816,4.816,0,0,1-4.815-4.815" transform="translate(-1477.588 -782.085)" fill="#72c7f0"/>
        <path id="패스_1254" data-name="패스 1254" d="M2498,1510.82a4.815,4.815,0,1,1,4.815,4.815,4.816,4.816,0,0,1-4.815-4.815" transform="translate(-1461.209 -880.942)" fill="#72c7f0"/>
        <path id="패스_1255" data-name="패스 1255" d="M2526,1653.82a4.815,4.815,0,1,1,4.815,4.815,4.815,4.815,0,0,1-4.815-4.815" transform="translate(-1477.588 -964.59)" fill="#72c7f0"/>
        <path id="패스_1256" data-name="패스 1256" d="M2654,1597.82a4.815,4.815,0,1,1,4.815,4.815,4.816,4.816,0,0,1-4.815-4.815" transform="translate(-1552.462 -931.833)" fill="#72c7f0"/>
        <path id="패스_1257" data-name="패스 1257" d="M2790,1267.82a4.815,4.815,0,1,1,4.815,4.815,4.815,4.815,0,0,1-4.815-4.815" transform="translate(-1632.015 -738.799)" fill="#72c7f0"/>
        <path id="패스_1258" data-name="패스 1258" d="M2748,1156.82a4.815,4.815,0,1,1,4.815,4.815,4.815,4.815,0,0,1-4.815-4.815" transform="translate(-1607.447 -673.869)" fill="#72c7f0"/>
        <path id="패스_1259" data-name="패스 1259" d="M2931,1339.82a4.815,4.815,0,1,1,4.815,4.815,4.815,4.815,0,0,1-4.815-4.815" transform="translate(-1714.493 -780.915)" fill="#72c7f0"/>
        <path id="패스_1260" data-name="패스 1260" d="M2965,1463.82a4.815,4.815,0,1,1,4.815,4.815,4.816,4.816,0,0,1-4.815-4.815" transform="translate(-1734.381 -853.449)" fill="#72c7f0"/>
        <path id="패스_1261" data-name="패스 1261" d="M3152,1212.82a4.815,4.815,0,1,1,4.815,4.815,4.815,4.815,0,0,1-4.815-4.815" transform="translate(-1843.767 -706.626)" fill="#72c7f0"/>
        <path id="패스_1262" data-name="패스 1262" d="M3290,1380.82a4.815,4.815,0,1,1,4.815,4.815,4.816,4.816,0,0,1-4.815-4.815" transform="translate(-1924.491 -804.898)" fill="#72c7f0"/>
        <path id="패스_1263" data-name="패스 1263" d="M3372,1510.82a4.815,4.815,0,1,1,4.816,4.815,4.816,4.816,0,0,1-4.816-4.815" transform="translate(-1972.457 -880.942)" fill="#72c7f0"/>
        <path id="패스_1264" data-name="패스 1264" d="M3581,1466.82a4.815,4.815,0,1,1,4.815,4.815,4.815,4.815,0,0,1-4.815-4.815" transform="translate(-2094.712 -855.204)" fill="#72c7f0"/>
        <path id="패스_1265" data-name="패스 1265" d="M3809,1443.82a4.815,4.815,0,1,1,4.815,4.815,4.815,4.815,0,0,1-4.815-4.815" transform="translate(-2228.08 -841.75)" fill="#72c7f0"/>
        <path id="패스_1266" data-name="패스 1266" d="M3752,1834.82a4.815,4.815,0,1,1,4.815,4.815,4.816,4.816,0,0,1-4.815-4.815" transform="translate(-2194.738 -1070.466)" fill="#72c7f0"/>
        <path id="패스_1267" data-name="패스 1267" d="M4332,1834.82a4.815,4.815,0,1,1,4.815,4.815,4.815,4.815,0,0,1-4.815-4.815" transform="translate(-2534.01 -1070.466)" fill="#72c7f0"/>
        <path id="패스_1268" data-name="패스 1268" d="M4419,1620.82a4.815,4.815,0,1,1,4.815,4.815,4.815,4.815,0,0,1-4.815-4.815" transform="translate(-2584.901 -945.287)" fill="#72c7f0"/>
        <path id="패스_1269" data-name="패스 1269" d="M4488,1212.82a4.815,4.815,0,1,1,4.815,4.815,4.815,4.815,0,0,1-4.815-4.815" transform="translate(-2625.263 -706.626)" fill="#72c7f0"/>
        <path id="패스_1270" data-name="패스 1270" d="M3976,1293.82a4.815,4.815,0,1,1,4.815,4.815,4.816,4.816,0,0,1-4.815-4.815" transform="translate(-2325.767 -754.008)" fill="#72c7f0"/>
        <path id="패스_1271" data-name="패스 1271" d="M3988,1068.82a4.815,4.815,0,1,1,4.815,4.815,4.816,4.816,0,0,1-4.815-4.815" transform="translate(-2332.787 -622.393)" fill="#72c7f0"/>
        <path id="패스_1272" data-name="패스 1272" d="M3842,1168.82a4.815,4.815,0,1,1,4.815,4.815,4.815,4.815,0,0,1-4.815-4.815" transform="translate(-2247.384 -680.889)" fill="#72c7f0"/>
        <path id="패스_1273" data-name="패스 1273" d="M3345,1008.82a4.815,4.815,0,1,1,4.815,4.815,4.815,4.815,0,0,1-4.815-4.815" transform="translate(-1956.663 -587.296)" fill="#72c7f0"/>
        <path id="패스_1274" data-name="패스 1274" d="M3922,790.82a4.815,4.815,0,1,1,4.815,4.815A4.815,4.815,0,0,1,3922,790.82" transform="translate(-2294.18 -459.777)" fill="#72c7f0"/>
        <path id="패스_1275" data-name="패스 1275" d="M4626,290.82a4.815,4.815,0,1,1,4.815,4.815A4.815,4.815,0,0,1,4626,290.82" transform="translate(-2705.986 -167.301)" fill="#72c7f0"/>
        <path id="패스_1276" data-name="패스 1276" d="M4688,467.82a4.815,4.815,0,1,1,4.815,4.815A4.815,4.815,0,0,1,4688,467.82" transform="translate(-2742.253 -270.838)" fill="#72c7f0"/>
        <path id="패스_1277" data-name="패스 1277" d="M4946,925.82a4.815,4.815,0,1,1,4.815,4.815A4.815,4.815,0,0,1,4946,925.82" transform="translate(-2893.171 -538.745)" fill="#72c7f0"/>
        <path id="패스_1278" data-name="패스 1278" d="M4791,1276.82a4.815,4.815,0,1,1,4.815,4.815,4.815,4.815,0,0,1-4.815-4.815" transform="translate(-2802.503 -744.063)" fill="#72c7f0"/>
        <path id="패스_1279" data-name="패스 1279" d="M4915,1695.82a4.815,4.815,0,1,1,4.815,4.815,4.815,4.815,0,0,1-4.815-4.815" transform="translate(-2875.037 -989.158)" fill="#72c7f0"/>
        <path id="패스_1280" data-name="패스 1280" d="M4927,1933.82a4.816,4.816,0,1,1,4.815,4.815,4.815,4.815,0,0,1-4.815-4.815" transform="translate(-2882.056 -1128.376)" fill="#72c7f0"/>
        <path id="패스_1281" data-name="패스 1281" d="M4976,2104.82a4.816,4.816,0,1,1,4.815,4.816,4.815,4.815,0,0,1-4.815-4.816" transform="translate(-2910.719 -1228.403)" fill="#72c7f0"/>
        <path id="패스_1282" data-name="패스 1282" d="M4708,2418.82a4.815,4.815,0,1,1,4.815,4.815,4.815,4.815,0,0,1-4.815-4.815" transform="translate(-2753.952 -1412.078)" fill="#72c7f0"/>
        <path id="패스_1283" data-name="패스 1283" d="M4206,2029.82a4.816,4.816,0,1,1,4.815,4.815,4.815,4.815,0,0,1-4.815-4.815" transform="translate(-2460.306 -1184.532)" fill="#72c7f0"/>
        <path id="패스_1284" data-name="패스 1284" d="M2748,1834.82a4.815,4.815,0,1,1,4.815,4.815,4.815,4.815,0,0,1-4.815-4.815" transform="translate(-1607.447 -1070.466)" fill="#72c7f0"/>
        <path id="패스_1285" data-name="패스 1285" d="M2832,1749.82a4.815,4.815,0,1,1,4.815,4.815,4.816,4.816,0,0,1-4.815-4.815" transform="translate(-1656.583 -1020.745)" fill="#72c7f0"/>
        <path id="패스_1286" data-name="패스 1286" d="M3240,1834.82a4.815,4.815,0,1,1,4.815,4.815,4.816,4.816,0,0,1-4.815-4.815" transform="translate(-1895.243 -1070.466)" fill="#72c7f0"/>
        <path id="패스_1287" data-name="패스 1287" d="M3168,1642.82a4.815,4.815,0,1,1,4.815,4.815,4.816,4.816,0,0,1-4.815-4.815" transform="translate(-1853.126 -958.155)" fill="#72c7f0"/>
        <path id="패스_1288" data-name="패스 1288" d="M1998,1393.82a4.815,4.815,0,1,1,4.815,4.815,4.815,4.815,0,0,1-4.815-4.815" transform="translate(-1168.733 -812.503)" fill="#72c7f0"/>
        <path id="패스_1289" data-name="패스 1289" d="M2234,1765.82a4.815,4.815,0,1,1,4.815,4.815,4.815,4.815,0,0,1-4.815-4.815" transform="translate(-1306.782 -1030.104)" fill="#72c7f0"/>
        <path id="패스_1290" data-name="패스 1290" d="M1684,1746.82a4.815,4.815,0,1,1,4.815,4.815,4.815,4.815,0,0,1-4.815-4.815" transform="translate(-985.058 -1018.991)" fill="#72c7f0"/>
        <path id="패스_1291" data-name="패스 1291" d="M1899,1554.82a4.815,4.815,0,1,1,4.815,4.815,4.815,4.815,0,0,1-4.815-4.815" transform="translate(-1110.823 -906.68)" fill="#72c7f0"/>
        <path id="패스_1292" data-name="패스 1292" d="M1799,1267.82a4.815,4.815,0,1,1,4.815,4.815,4.815,4.815,0,0,1-4.815-4.815" transform="translate(-1052.328 -738.799)" fill="#72c7f0"/>
        <path id="패스_1293" data-name="패스 1293" d="M1626,1102.82a4.815,4.815,0,1,1,4.815,4.815,4.815,4.815,0,0,1-4.815-4.815" transform="translate(-951.131 -642.282)" fill="#72c7f0"/>
        <path id="패스_1294" data-name="패스 1294" d="M1181,728.82a4.815,4.815,0,1,1,4.815,4.815A4.815,4.815,0,0,1,1181,728.82" transform="translate(-690.828 -423.51)" fill="#72c7f0"/>
        <path id="패스_1295" data-name="패스 1295" d="M1207,1210.82a4.815,4.815,0,1,1,4.815,4.815,4.815,4.815,0,0,1-4.815-4.815" transform="translate(-706.037 -705.457)" fill="#72c7f0"/>
        <path id="패스_1296" data-name="패스 1296" d="M1219,1393.82a4.815,4.815,0,1,1,4.815,4.815,4.815,4.815,0,0,1-4.815-4.815" transform="translate(-713.056 -812.503)" fill="#72c7f0"/>
        <path id="패스_1297" data-name="패스 1297" d="M499,43.82a4.815,4.815,0,1,1,4.815,4.815A4.815,4.815,0,0,1,499,43.82" transform="translate(-291.891 -22.818)" fill="#72c7f0"/>
        <path id="패스_1298" data-name="패스 1298" d="M231,345.82a4.815,4.815,0,1,1,4.815,4.815A4.815,4.815,0,0,1,231,345.82" transform="translate(-135.802 -194.993)" fill="#72c7f0"/>
        <path id="패스_1299" data-name="패스 1299" d="M730.643,1356.615a7.827,7.827,0,1,1,7.827,7.827,7.827,7.827,0,0,1-7.827-7.827" transform="translate(-427.391 -788.977)" fill="#72c7f0"/>
        <path id="패스_1300" data-name="패스 1300" d="M2281.643,1462.614a7.827,7.827,0,1,1,7.827,7.828,7.827,7.827,0,0,1-7.827-7.828" transform="translate(-1334.651 -850.982)" fill="#72c7f0"/>
        <path id="패스_1301" data-name="패스 1301" d="M2904.643,1537.615a7.827,7.827,0,1,1,7.827,7.827,7.827,7.827,0,0,1-7.827-7.827" transform="translate(-1699.075 -894.853)" fill="#72c7f0"/>
        <path id="패스_1302" data-name="패스 1302" d="M977.643,1554.614a7.827,7.827,0,1,1,7.828,7.827,7.828,7.828,0,0,1-7.828-7.827" transform="translate(-571.874 -904.797)" fill="#72c7f0"/>
        <path id="패스_1303" data-name="패스 1303" d="M1561.643,1428.614a7.828,7.828,0,1,1,7.828,7.827,7.828,7.828,0,0,1-7.828-7.827" transform="translate(-913.485 -831.094)" fill="#72c7f0"/>
        <path id="패스_1304" data-name="패스 1304" d="M2234.643,991.614a7.827,7.827,0,1,1,7.827,7.827,7.827,7.827,0,0,1-7.827-7.827" transform="translate(-1307.158 -575.47)" fill="#72c7f0"/>
        <path id="패스_1305" data-name="패스 1305" d="M1990.643,1646.614a7.827,7.827,0,1,1,7.827,7.827,7.827,7.827,0,0,1-7.827-7.827" transform="translate(-1164.43 -958.613)" fill="#72c7f0"/>
        <path id="패스_1306" data-name="패스 1306" d="M3400.643,1191.615a7.827,7.827,0,1,1,7.827,7.827,7.827,7.827,0,0,1-7.827-7.827" transform="translate(-1989.212 -692.46)" fill="#72c7f0"/>
        <path id="패스_1307" data-name="패스 1307" d="M3400.643,1703.614a7.827,7.827,0,1,1,7.827,7.827,7.827,7.827,0,0,1-7.827-7.827" transform="translate(-1989.212 -991.955)" fill="#72c7f0"/>
        <path id="패스_1308" data-name="패스 1308" d="M4641.643,1397.614a7.827,7.827,0,1,1,7.828,7.827,7.827,7.827,0,0,1-7.828-7.827" transform="translate(-2715.136 -812.96)" fill="#72c7f0"/>
        <path id="패스_1309" data-name="패스 1309" d="M4169.643,1319.614a7.827,7.827,0,1,1,7.827,7.827,7.827,7.827,0,0,1-7.827-7.827" transform="translate(-2439.039 -767.334)" fill="#72c7f0"/>
        <path id="패스_1310" data-name="패스 1310" d="M3537.643,818.614a7.827,7.827,0,1,1,7.827,7.827,7.827,7.827,0,0,1-7.827-7.827" transform="translate(-2069.35 -474.273)" fill="#72c7f0"/>
        <path id="패스_1311" data-name="패스 1311" d="M1157.643,1881.614a7.827,7.827,0,1,1,7.827,7.827,7.827,7.827,0,0,1-7.827-7.827" transform="translate(-677.165 -1096.077)" fill="#72c7f0"/>
        <g id="그룹_535" data-name="그룹 535" transform="translate(83.163 163.527)" opacity="0.2">
          <g id="그룹_534" data-name="그룹 534">
            <g id="그룹_533" data-name="그룹 533" clip-path="url(#clip-path-38)">
              <path id="패스_1312" data-name="패스 1312" d="M635.183,1161.192,480.37,1145l77.614,78.029Z" transform="translate(-364.156 -833.301)" fill="#72c7f0"/>
              <path id="패스_1313" data-name="패스 1313" d="M1483.433,1471,1371.37,1520.4l96.706,17.847Z" transform="translate(-885.348 -1023.996)" fill="#72c7f0"/>
              <path id="패스_1314" data-name="패스 1314" d="M561.671,1667l-179.3,124.1,97.536,9.131Z" transform="translate(-306.831 -1138.646)" fill="#72c7f0"/>
              <path id="패스_1315" data-name="패스 1315" d="M213.236,684,200.37,801.463l151.078-91.726Z" transform="translate(-200.37 -563.639)" fill="#72c7f0"/>
              <path id="패스_1316" data-name="패스 1316" d="M1198.285,394l-85.915,63.5,97.064-8.7Z" transform="translate(-733.846 -394.003)" fill="#72c7f0"/>
              <path id="패스_1317" data-name="패스 1317" d="M3399.931,945l-48.561,71.388,153.983,11.621Z" transform="translate(-2043.552 -716.311)" fill="#72c7f0"/>
              <path id="패스_1318" data-name="패스 1318" d="M2478.758,1435l-71.388,48.976L2524,1470.7Z" transform="translate(-1491.358 -1002.937)" fill="#72c7f0"/>
              <path id="패스_1319" data-name="패스 1319" d="M2623.04,1764l-84.67,14.527,79.274,69.313Z" transform="translate(-1567.987 -1195.386)" fill="#72c7f0"/>
              <path id="패스_1320" data-name="패스 1320" d="M4224.7,1729.191,4094.37,1713l130.74,138.211Z" transform="translate(-2478.171 -1165.554)" fill="#72c7f0"/>
              <path id="패스_1321" data-name="패스 1321" d="M4626.142,967.815,4439.37,962,4539.4,1108.1Z" transform="translate(-2679.98 -726.255)" fill="#72c7f0"/>
            </g>
          </g>
        </g>
        <g id="그룹_538" data-name="그룹 538" transform="translate(95.2 -0.002)" opacity="0.1">
          <g id="그룹_537" data-name="그룹 537">
            <g id="그룹_536" data-name="그룹 536" clip-path="url(#clip-path-39)">
              <path id="패스_1322" data-name="패스 1322" d="M718.329,1140l96.706,83.84L686.37,1187.32Z" transform="translate(-496.693 -666.847)" fill="#72c7f0"/>
              <path id="패스_1323" data-name="패스 1323" d="M1118.348,588.409l-43.977,78.365,115.189-35.9Z" transform="translate(-723.654 -344.191)" fill="#72c7f0"/>
              <path id="패스_1324" data-name="패스 1324" d="M3033.6,1114l-6.226,78.533,100.026,16.1Z" transform="translate(-1866.065 -651.639)" fill="#72c7f0"/>
              <path id="패스_1325" data-name="패스 1325" d="M4101.117,1514l-64.747,43.165,98.781,80.934Z" transform="translate(-2456.281 -885.619)" fill="#72c7f0"/>
              <path id="패스_1326" data-name="패스 1326" d="M4707.14,1683.276,4669.37,1582l98.782,80.934Z" transform="translate(-2826.555 -925.396)" fill="#72c7f0"/>
              <path id="패스_1327" data-name="패스 1327" d="M4262.438,452.437l-64.667-43.286-36.943,122.243Z" transform="translate(-2529.082 -239.334)" fill="#72c7f0"/>
              <path id="패스_1328" data-name="패스 1328" d="M4808.28,712.527,4678.37,654l8.906,153.018Z" transform="translate(-2831.82 -382.561)" fill="#72c7f0"/>
              <path id="패스_1329" data-name="패스 1329" d="M2110.845,868.465l-3.476,43.846,67.653-23.872Z" transform="translate(-1327.909 -508.01)" fill="#72c7f0"/>
              <path id="패스_1330" data-name="패스 1330" d="M1046.5,2125l-46.026,37.36,71.759,51.875Z" transform="translate(-680.43 -1243.025)" fill="#72c7f0"/>
              <path id="패스_1331" data-name="패스 1331" d="M1769.519,1126.276l-71.828,42.107,130.515,81.291Z" transform="translate(-1088.267 -658.817)" fill="#72c7f0"/>
              <path id="패스_1332" data-name="패스 1332" d="M293.287,0,229.37,158.138l202.419,46.508Z" transform="translate(-229.37 -0.003)" fill="#72c7f0"/>
            </g>
          </g>
        </g>
      </g>
      <rect id="사각형_1446" data-name="사각형 1446" width="1.245" height="181.273" transform="matrix(0.959, -0.284, 0.284, 0.959, 126.178, 321.901)" fill="#72c7f0"/>
      <rect id="사각형_1447" data-name="사각형 1447" width="109.847" height="1.245" transform="matrix(0.975, -0.223, 0.223, 0.975, 113.532, 855.439)" fill="#72c7f0"/>
      <rect id="사각형_1448" data-name="사각형 1448" width="1.245" height="112.346" transform="translate(101.13 6.637) rotate(-81.93)" fill="#72c7f0"/>
      <rect id="사각형_1449" data-name="사각형 1449" width="1.245" height="181.273" transform="translate(1992.987 533.967) rotate(-16.499)" fill="#72c7f0"/>
      <rect id="사각형_1450" data-name="사각형 1450" width="1.245" height="112.345" transform="translate(1959.302 1008.148) rotate(-81.93)" fill="#72c7f0"/>
      <rect id="사각형_1451" data-name="사각형 1451" width="1.245" height="119.995" transform="matrix(0.636, -0.771, 0.771, 0.636, 1052.943, 689.255)" fill="#72c7f0"/>
      <rect id="사각형_1452" data-name="사각형 1452" width="1.245" height="107.415" transform="translate(1145.455 484.181) rotate(-45)" fill="#72c7f0"/>
    </g>
  </g>
</svg>
