<svg xmlns="http://www.w3.org/2000/svg" xmlns:xlink="http://www.w3.org/1999/xlink" width="1920" height="1400" viewBox="0 0 1920 1400">
  <defs>
    <clipPath id="clip-path">
      <rect id="사각형_3710" data-name="사각형 3710" width="1920" height="1400" transform="translate(-17829 -12961)" fill="#fff" stroke="#707070" stroke-width="1"/>
    </clipPath>
  </defs>
  <g id="main_section3_obj5" transform="translate(17829 12961)" clip-path="url(#clip-path)">
    <g id="그룹_5734" data-name="그룹 5734" transform="translate(-989 2005)">
      <path id="패스_1637" data-name="패스 1637" d="M512.385,650.671l-208.88-31.619L337.52,507.426ZM305.116,618.036l202.972,30.725L338.169,509.567Z" transform="translate(-17125.99 -15145.408)" fill="#72c7f0"/>
      <path id="패스_1645" data-name="패스 1645" d="M1690.625,1647.076l91.416-81.591,42.718,38.873Zm91.408-79.915-86.225,76.957,126.517-40.292Z" transform="translate(-17937.389 -15764.322)" fill="#72c7f0"/>
      <path id="패스_1646" data-name="패스 1646" d="M1561.969,1646.525,1466.576,1616l184.24-49.942.326,1.2L1470.97,1616.1l91.378,29.242Z" transform="translate(-17806.332 -15764.656)" fill="#72c7f0"/>
      <path id="패스_1631" data-name="패스 1631" d="M1282.945,858l-90.276-120.646,1-.746,89.855,120.082,94.281-9.511.125,1.239Z" transform="translate(-17646.109 -15279.468)" fill="#72c7f0"/>
      <path id="패스_1632" data-name="패스 1632" d="M1719.124,1398.057l-1.24-.475-136.551-52.3.445-1.162,135.312,51.821-40.662-119.522,1.179-.4Z" transform="translate(-17873.457 -15595)" fill="#72c7f0"/>
      <path id="패스_1634" data-name="패스 1634" d="M903.652,680.938l-51.4-173.989L995.07,602.58l-.623.534ZM854.426,509.9,904.3,678.742l88.713-76.04Z" transform="translate(-17446.984 -15145.129)" fill="#72c7f0"/>
      <path id="패스_1636" data-name="패스 1636" d="M1963.78,1168.564l-1.062-.651,100.439-163.831-133.358,37.75-.339-1.2,136.424-38.618Z" transform="translate(-18077.096 -15434.72)" fill="#72c7f0"/>
      <path id="패스_1647" data-name="패스 1647" d="M995.6,1343.414l11.528-160.9,88.858,91.259Zm12.571-158.047-11.143,155.542,97.039-67.324Z" transform="translate(-17530.834 -15540.3)" fill="#72c7f0"/>
    </g>
    <g id="그룹_5735" data-name="그룹 5735" transform="translate(-989 2005)">
      <path id="패스_1649" data-name="패스 1649" d="M4638.691,1759.409l-1.009-.622L4424.09,1627.171l209.45,31.706Zm-208.746-130.092,207.381,127.789-4.979-97.15Z" transform="translate(-19536.334 -15800.404)" fill="#72c7f0"/>
      <path id="패스_1650" data-name="패스 1650" d="M4564.626,1299.237l-.409-.48-67.869-79.713,128.729,27.479Zm-64.955-78.21,65.085,76.444,57.625-50.249Z" transform="translate(-19578.602 -15561.67)" fill="#72c7f0"/>
      <path id="패스_1653" data-name="패스 1653" d="M4212,1360.266l-.377-1.159-30.4-93.494.573-.2,133.563-46.995Zm-29.218-93.883,29.648,91.178L4312,1220.92Z" transform="translate(-19394.27 -15561.303)" fill="#72c7f0"/>
      <path id="패스_1656" data-name="패스 1656" d="M4279.449,710.739,4234.061,534.6l193.565-59.527.366,1.19-192.429,59.177,45.092,174.99Z" transform="translate(-19425.176 -15126.482)" fill="#72c7f0"/>
      <path id="패스_1661" data-name="패스 1661" d="M3731.909,1624.1l-138.92-149.92,67.725,149.239-1.134.515-70.9-156.236,144.143,155.556Z" transform="translate(-19047.66 -15707.12)" fill="#72c7f0"/>
      <path id="패스_1662" data-name="패스 1662" d="M3679.705,956.78l-.821-.956L3554.823,811.294l158.521-13.455ZM3557.352,812.329l121.657,141.728,32.769-154.836Z" transform="translate(-19027.855 -15315.286)" fill="#72c7f0"/>
      <path id="패스_1663" data-name="패스 1663" d="M3687.187,1290.6l-96.459-35.538,110.421-80.806Zm-93.851-35.9,92.8,34.191,13.431-111.933Z" transform="translate(-19048.857 -15535.471)" fill="#72c7f0"/>
      <path id="패스_1666" data-name="패스 1666" d="M3563,1716.487l-145.037-54.176,45.218-38.819Zm-142.626-54.6,137.2,51.247-94.423-87.967Z" transform="translate(-18947.799 -15798.254)" fill="#72c7f0"/>
      <path id="패스_1667" data-name="패스 1667" d="M3281.042,1601.97l-.953-.258-99.612-26.978.326-1.2,98.659,26.72-14.764-80.794,1.225-.224Z" transform="translate(-18808.879 -15737.268)" fill="#72c7f0"/>
    </g>
  </g>
</svg>
