<svg xmlns="http://www.w3.org/2000/svg" xmlns:xlink="http://www.w3.org/1999/xlink" width="393" height="673" viewBox="0 0 393 673">
  <defs>
    <clipPath id="clip-path">
      <rect id="사각형_3888" data-name="사각형 3888" width="393" height="673" transform="translate(-20954 -11016)" fill="#fff" stroke="#707070" stroke-width="1"/>
    </clipPath>
    <clipPath id="clip-path-2">
      <rect id="사각형_3886" data-name="사각형 3886" width="762" height="556" transform="translate(-0.416 -0.491)" fill="#fff" stroke="#707070" stroke-width="1"/>
    </clipPath>
    <clipPath id="clip-path-3">
      <rect id="사각형_3887" data-name="사각형 3887" width="762" height="556" transform="translate(0 0.001)" fill="#fff" stroke="#707070" stroke-width="1"/>
    </clipPath>
  </defs>
  <g id="main_section3_obj4_m" transform="translate(20954 11016)" clip-path="url(#clip-path)">
    <g id="main_section3_obj2" transform="translate(-21225.85 -10781.016) rotate(-30)" clip-path="url(#clip-path-2)">
      <g id="그룹_6097" data-name="그룹 6097" transform="translate(-3.504 94.775)">
        <path id="패스_13470" data-name="패스 13470" d="M746.44,993.88l38.022-75.47,8.025,44.136Zm37.8-73.932-36.5,72.451,44.2-30.081Z" transform="translate(-663.11 -815.521)" fill="#72c7f0"/>
        <path id="패스_13471" data-name="패스 13471" d="M1219.846,1249.59l-2.709-30.651,26.926,13.717Zm-2.139-29.807,2.556,28.913,22.843-15.974Z" transform="translate(-1056.358 -1066.6)" fill="#72c7f0"/>
        <path id="패스_13472" data-name="패스 13472" d="M594.45,463.4l-.488-.076,8.691-55.751-49.346-20,.185-.457L603.2,407.262Z" transform="translate(-501.756 -371.646)" fill="#72c7f0"/>
        <path id="패스_13473" data-name="패스 13473" d="M263.834,388.887l-23.824-24.16,51.661,3.666-.035.492-50.356-3.574,22.906,23.228Z" transform="translate(-240.01 -352.942)" fill="#72c7f0"/>
        <path id="패스_13474" data-name="패스 13474" d="M1391.275,1363.57l-15.791-64.507,34.269,23.35-.085.189Zm-15.005-63.374,15.143,61.862,17.721-39.469Z" transform="translate(-1188.651 -1133.54)" fill="#72c7f0"/>
        <path id="패스_13475" data-name="패스 13475" d="M1375.969,1071.565l5.535-46.124,38.24,14.089Zm5.951-45.444-5.325,44.375,42.116-30.82Z" transform="translate(-1189.055 -904.941)" fill="#72c7f0"/>
        <path id="패스_13476" data-name="패스 13476" d="M1637.37,1020.673v-18.2l49.5,15.31Zm.494-17.533v17.01l46.26-2.7Z" transform="translate(-1407.444 -885.751)" fill="#72c7f0"/>
        <path id="패스_13477" data-name="패스 13477" d="M4511.733,1456.994l-43.645-48.307-37.64,35.963-.341-.357,38.007-36.313,43.984,48.684Z" transform="translate(-3740.66 -1224.535)" fill="#72c7f0"/>
        <path id="패스_13478" data-name="패스 13478" d="M4648.677,323.523l-.11-.481,41.663-9.527-51.9-19.948.177-.461,53.41,20.529Z" transform="translate(-3914.622 -293.105)" fill="#72c7f0"/>
        <path id="패스_13479" data-name="패스 13479" d="M4638.808,1974.163l-.031-.493,57.283-3.6-7.978-27.842.475-.136,8.147,28.432Z" transform="translate(-3914.993 -1670.764)" fill="#72c7f0"/>
        <path id="패스_13480" data-name="패스 13480" d="M3832,1876.025,3753.65,1842h29.9l.064.045Zm-75.973-33.526,71.713,31.139L3783.39,1842.5Z" transform="translate(-3175.507 -1587.146)" fill="#72c7f0"/>
        <path id="패스_13481" data-name="패스 13481" d="M3943.722,692.234l-10.555-46.575.154-.092,50.274-30.064Zm-9.994-46.335,10.178,44.911,38.449-73.99Z" transform="translate(-3325.487 -562.455)" fill="#72c7f0"/>
        <path id="패스_13482" data-name="패스 13482" d="M3344.017,1385.117l-.32-.1-49.184-15.211,49.5-2.892Zm-46.754-14.977,46.26,14.307v-17.01Z" transform="translate(-2791.918 -1190.228)" fill="#72c7f0"/>
        <path id="패스_13483" data-name="패스 13483" d="M2967.824,1504.326,2924.3,1486.3l.189-.456,40.717,16.859-32.253-27.963.323-.373Z" transform="translate(-2482.617 -1280.003)" fill="#72c7f0"/>
        <path id="패스_13484" data-name="패스 13484" d="M2936.376,1589.031l-12.944-43.812.473-.14,12.724,43.067,29-25.74.328.369Z" transform="translate(-2481.896 -1339.077)" fill="#72c7f0"/>
        <path id="패스_13485" data-name="패스 13485" d="M2756.683,1771.408l14.442-14.614.145.047,27.02,8.721Zm14.579-14.051-13.2,13.359,38.032-5.344Z" transform="translate(-2342.583 -1515.956)" fill="#72c7f0"/>
        <path id="패스_13486" data-name="패스 13486" d="M2947.766,1262.276l-5.643-21.08.165-.095,36.364-20.9.246.428-36.2,20.8,5.545,20.714Z" transform="translate(-2497.511 -1067.658)" fill="#72c7f0"/>
      </g>
    </g>
    <g id="main_section3_obj2-2" data-name="main_section3_obj2" transform="matrix(-0.174, 0.985, -0.985, -0.174, -20417.564, -11058.456)" clip-path="url(#clip-path-3)">
      <g id="그룹_6098" data-name="그룹 6098" transform="translate(-3.088 157.335)">
        <path id="패스_13487" data-name="패스 13487" d="M0,0,38.022,75.47l8.025-44.136ZM37.8,73.932,1.3,1.481,45.5,31.562Z" transform="translate(83.329 125.04)" fill="#72c7f0"/>
        <path id="패스_13488" data-name="패스 13488" d="M2.709,0,0,30.651,26.926,16.935ZM.57,29.807,3.126.894,25.969,16.868Z" transform="translate(160.779 120.409)" fill="#72c7f0"/>
        <path id="패스_13489" data-name="패스 13489" d="M41.143,0l-.488.076,8.691,55.751L0,75.828l.185.457L49.894,56.138Z" transform="translate(51.55 211.646)" fill="#72c7f0"/>
        <path id="패스_13490" data-name="패스 13490" d="M23.824,0,0,24.16l51.661-3.666L51.626,20,1.27,23.575,24.176.347Z" transform="translate(0 267.455)" fill="#72c7f0"/>
        <path id="패스_13491" data-name="패스 13491" d="M15.791,0,0,64.507l34.269-23.35-.085-.189ZM.785,63.374,15.929,1.512,33.649,40.982Z" transform="translate(186.834 73.37)" fill="#72c7f0"/>
        <path id="패스_13492" data-name="패스 13492" d="M0,0,5.535,46.124,43.775,32.035ZM5.951,45.444.625,1.07,42.741,31.89Z" transform="translate(186.914 136.775)" fill="#72c7f0"/>
        <path id="패스_13493" data-name="패스 13493" d="M0,0V18.2L49.5,2.892ZM.494,17.533V.523l46.26,2.7Z" transform="translate(229.925 168.477)" fill="#72c7f0"/>
        <path id="패스_13494" data-name="패스 13494" d="M81.625,0,37.98,48.307.341,12.345,0,12.7,38.007,49.015,81.991.331Z" transform="translate(689.449 70.941)" fill="#72c7f0"/>
        <path id="패스_13495" data-name="패스 13495" d="M10.345,0l-.11.481L51.9,10.009,0,29.957l.177.461L53.586,9.888Z" transform="translate(723.711 272.982)" fill="#72c7f0"/>
        <path id="패스_13496" data-name="패스 13496" d="M.031,0,0,.493l57.283,3.6L49.305,31.935l.475.136L57.927,3.639Z" transform="translate(723.784 0.001)" fill="#72c7f0"/>
        <path id="패스_13497" data-name="패스 13497" d="M78.349,0,0,34.02H29.9l.064-.045ZM2.376,33.526,74.09,2.388,29.741,33.527Z" transform="translate(578.143 14.52)" fill="#72c7f0"/>
        <path id="패스_13498" data-name="패스 13498" d="M10.554,0,0,46.575l.154.092L50.428,76.731ZM.56,46.335,10.738,1.424l38.449,73.99Z" transform="translate(607.681 173.621)" fill="#72c7f0"/>
        <path id="패스_13499" data-name="패스 13499" d="M49.5,0l-.32.1L0,15.31,49.5,18.2ZM2.75,14.977,49.01.67v17.01Z" transform="translate(502.595 108.51)" fill="#72c7f0"/>
        <path id="패스_13500" data-name="패스 13500" d="M43.528,0,0,18.023l.189.456L40.906,1.62,8.654,29.583l.323.373Z" transform="translate(441.679 79.075)" fill="#72c7f0"/>
        <path id="패스_13501" data-name="패스 13501" d="M12.944,0,0,43.812l.473.14L13.2.885l29,25.74.328-.369Z" transform="translate(441.536 53.445)" fill="#72c7f0"/>
        <path id="패스_13502" data-name="패스 13502" d="M0,0,14.441,14.614l.145-.047,27.02-8.721ZM14.579,14.051,1.378.692,39.41,6.036Z" transform="translate(414.1 47.947)" fill="#72c7f0"/>
        <path id="패스_13503" data-name="패스 13503" d="M5.643,0,0,21.08l.165.095,36.364,20.9.246-.428-36.2-20.8L6.12.128Z" transform="translate(444.612 108.781)" fill="#72c7f0"/>
      </g>
    </g>
  </g>
</svg>
